<?xml version="1.0" encoding="utf-8" standalone="no"?><svg xmlns:android="http://schemas.android.com/apk/res/android" height="400.0" width="400.0" xmlns="http://www.w3.org/2000/svg">
    <path d="M347.7,200.7c0,-39.2 -15.3,-76.2 -43.1,-104c-23.9,-23.9 -54.1,-38.4 -87.4,-42.2c-0.8,-0.7 -1.6,-1.4 -2.4,-1.8c-11.9,-7.7 -22,-2.6 -28.8,0.7c-0.3,0.2 -0.8,0.3 -1.1,0.6c-0.5,0.2 -0.9,0.5 -1.4,0.7c-12,1.4 -23.7,4.3 -34.9,8.6c-1.2,-1.7 -2.6,-3.3 -4.1,-4.7c-7.3,-7.3 -17.2,-11.4 -27.6,-11.4c-21.6,0 -39.1,17.5 -39.1,39.1c0,8.5 2.6,16.5 7.7,23.3c-20.6,25.9 -31.9,58.2 -31.9,91.3c0,39.2 15.3,76.2 43.1,104c13.1,13.1 28.3,23.5 45.1,30.9c-0.6,6.1 0.2,10.6 1.4,13.3c-1.5,1.4 -2.4,2.7 -2.8,4.6c-3.7,5.8 4.4,11.9 8.3,14.9l0.6,0.5c5.2,4.1 8.9,4.7 12.4,4.7c1,0 2,-0.1 3.1,-0.1c0.6,0 1.1,-0.1 1.7,-0.1c5.4,-0.2 11.2,-4.5 17.5,-13.2c4,-0.5 5.4,-0.2 5.9,0l0.3,1.4l1.8,-0.2c2.6,-0.3 5.9,-1 10.1,-2.8c4.9,-2 7.7,-4.7 8.1,-7.9c0.2,-1.1 0,-2.1 -0.2,-3.1c21.6,-1.4 42,-7.1 60.8,-17.4c0.3,0.5 0.7,0.9 0.9,1.4c1.4,1.9 2.6,8.6 3.4,17.6c0.5,5.5 1.4,9.3 4,17.5c0.9,2.8 2,5.9 4.5,5.7c1.8,-0.2 2.8,-2.3 3.1,-6.1v-0.5c0.1,-2.8 0.6,-10.3 0.2,-15.8c-0.3,-5.9 -0.5,-14 0.6,-17.1c1.4,-4.2 -0.8,-6.1 -1.7,-6.9c0,0 0,0 -0.1,-0.1v-0.1c-0.1,-0.7 -0.2,-1.8 -1,-4.2c7.1,-5 13.8,-10.6 19.9,-16.7C332.5,276.9 347.7,240 347.7,200.7z" fill="#ffffff" fill-opacity="1.0"/>
    <path d="M345.8,200.7c0,-38.8 -15,-75.2 -42.5,-102.6c-23.6,-23.6 -54.1,-38.1 -86.8,-41.6c-0.8,-0.8 -1.6,-1.5 -2.6,-2c-11.6,-7.6 -21.3,-2 -28,1.2c-0.5,0.2 -1,0.6 -1.7,0.8c-12.7,1.5 -24.8,4.5 -36.3,9c-1.4,-2 -2.9,-4 -4.6,-5.7c-7,-7 -16.3,-10.9 -26.2,-10.9c-20.5,0 -37.1,16.6 -37.1,37.1c0,8.6 2.9,16.7 8.3,23.3c-20.2,25 -32.5,56.8 -32.5,91.3c0,38.8 15,75.2 42.5,102.6c13.3,13.3 28.9,23.9 45.8,31c-0.9,7.7 0.3,12.9 1.7,15c-2.1,1.8 -3.1,2.9 -3.4,5c-3.4,4.6 4.9,10.4 8.1,13c6.9,5.3 10.5,4.4 15.9,4.2c6.7,-0.2 12.9,-8 16.5,-13.1c7.1,-1 8.5,0.1 8.7,1c2.3,-0.3 5.4,-0.9 9.6,-2.7c9.7,-4.1 6.9,-9 6,-10c-0.2,-0.2 -0.5,-0.6 -0.7,-0.9c23,-0.9 45,-7.1 64.7,-18.1c0.7,0.8 1.4,1.7 2.1,2.7c2.1,3.2 3.3,13.3 3.7,18.7c0.5,5.3 1.4,8.8 4,17.2c2.6,8.3 3.6,2.3 3.7,0c0.1,-2.3 0.6,-10.3 0.2,-16.2c-0.3,-5.9 -0.5,-14.2 0.7,-17.9c1.1,-3.6 -0.9,-4.5 -1.5,-5.2c-0.6,-0.7 0,-0.9 -1.5,-5.5c-0.1,-0.2 -0.1,-0.6 -0.2,-0.8c7.3,-5.1 14.4,-10.9 20.8,-17.3C330.8,275.9 345.8,239.5 345.8,200.7z" fill="#ffffff" fill-opacity="1.0"/>
    <path d="M345.8,200.7c0,-38.8 -15,-75.2 -42.5,-102.6c-23.6,-23.6 -54.1,-38.1 -86.8,-41.6c-0.8,-0.8 -1.6,-1.5 -2.6,-2c-11.6,-7.6 -21.3,-2 -28,1.2c-0.5,0.2 -1,0.6 -1.7,0.8c-12.7,1.5 -24.8,4.5 -36.3,9c-1.4,-2 -2.9,-4 -4.6,-5.7c-7,-7 -16.3,-10.9 -26.2,-10.9c-20.5,0 -37.1,16.6 -37.1,37.1c0,8.6 2.9,16.7 8.3,23.3c-20.2,25 -32.5,56.8 -32.5,91.3c0,38.8 15,75.2 42.5,102.6c13.3,13.3 28.9,23.9 45.8,31c-0.9,7.7 0.3,12.9 1.7,15c-2.1,1.8 -3.1,2.9 -3.4,5c-3.4,4.6 4.9,10.4 8.1,13c6.9,5.3 10.5,4.4 15.9,4.2c6.7,-0.2 12.9,-8 16.5,-13.1c7.1,-1 8.5,0.1 8.7,1c2.3,-0.3 5.4,-0.9 9.6,-2.7c9.7,-4.1 6.9,-9 6,-10c-0.2,-0.2 -0.5,-0.6 -0.7,-0.9c23,-0.9 45,-7.1 64.7,-18.1c0.7,0.8 1.4,1.7 2.1,2.7c2.1,3.2 3.3,13.3 3.7,18.7c0.5,5.3 1.4,8.8 4,17.2c2.6,8.3 3.6,2.3 3.7,0c0.1,-2.3 0.6,-10.3 0.2,-16.2c-0.3,-5.9 -0.5,-14.2 0.7,-17.9c1.1,-3.6 -0.9,-4.5 -1.5,-5.2c-0.6,-0.7 0,-0.9 -1.5,-5.5c-0.1,-0.2 -0.1,-0.6 -0.2,-0.8c7.3,-5.1 14.4,-10.9 20.8,-17.3C330.8,275.9 345.8,239.5 345.8,200.7z" fill="#000000" fill-opacity="1.0"/>
    <path d="M166.4,336.1c5.4,-0.2 12.9,-1.9 16.3,-3.4c0.5,0.1 1.1,0.6 2.3,1c0.5,-3.6 -1.8,-11.1 -3.2,-14.5c-0.9,-2.3 -1.7,-3.8 -2.7,-6.2c-3.1,-0.6 -6.8,-2.1 -9.5,-3.3c0,2.1 0.3,7.7 0.8,11.4c-1.1,0.1 -2.7,0.2 -4.6,0.2C166.2,325.4 166.7,332.7 166.4,336.1z" fill="#008348" fill-opacity="1.0"/>
    <path d="M267.9,324.3c-1,-1 1.2,-4.2 2.3,-10c1,-5.9 1.1,-15.6 -3.2,-21c-2,-2.7 -3.1,-4.4 -3.4,-5.5c-13.2,9.6 -28.5,16.1 -44.7,18.8c-0.2,0.3 -0.3,0.7 -0.6,0.9c-2.4,3.1 -6.9,7.3 -10.3,9.2s-7.2,3.2 -9.4,3.8c-0.5,3.6 -1,11.6 -0.1,14.4c0.3,1 4.5,3.5 6,6.2c0.1,0.2 0.3,0.6 0.5,0.8c22.8,-0.7 44.4,-6.8 63.3,-17.2C268.1,324.4 268,324.3 267.9,324.3z" fill="#008348" fill-opacity="1.0"/>
    <path d="M300.3,101.1c-22,-22.2 -50.3,-36 -80.7,-40c2.5,4.9 2.8,10.4 3.1,13.9c4.4,-1.9 7.7,-2.9 9.5,-5.9c1.8,-2.9 4.3,-2.4 5.9,-0.2c1.6,2.1 1.6,4.9 -2.6,7.3c-4.2,2.6 -7.1,3.8 -8,4.3c-0.9,0.5 -0.1,1.2 0.9,2.9c1,1.7 3.6,5.9 4.1,14.6c0,0.1 0,0.2 0,0.2c16.5,5.1 31.5,14.1 44.1,26.7c20.2,20.2 31.4,47.2 31.4,75.8c0,16.4 -3.7,32.3 -10.6,46.7c0.9,0.5 2.1,3.7 2.6,8c0.2,2.3 0.1,4.7 -0.6,6.3s-6,9.5 -8.6,11.9c-1,0.9 -3.4,0.8 -4.4,-0.7c-1,-1.5 -1.1,-0.7 -1.9,0.1c-0.8,0.8 -3.5,4.7 -4.2,5.8c-0.7,1 -2.9,2 -1.5,6.1c1.5,4.1 3.2,7 2.6,9.3c-0.6,2.3 -0.8,2.9 2.3,5.5s2.9,5.8 1.6,7.7c-0.8,1.2 -2.1,4.6 -2.7,8.1c35.8,-25.6 59.3,-67.5 59.3,-114.8C341.7,163 327,127.6 300.3,101.1z" fill="#008348" fill-opacity="1.0"/>
    <path d="M138.5,304.8c-0.3,-3.8 -1,-10.6 1.7,-15.6c-5.4,-3.7 -10.5,-7.9 -15.3,-12.7c-20.2,-20.2 -31.4,-47.2 -31.4,-75.8c0,-30.6 12.9,-58.3 33.7,-77.9c0.2,-0.5 0.5,-0.8 0.8,-1.2c-3.5,1.1 -7.2,1.7 -11,1.7c-9.8,0 -19.1,-3.8 -26.1,-10.7c-20.1,25 -31,55.7 -31,88.2c0,37.7 14.7,73 41.3,99.7c12.8,12.8 27.6,22.7 43.6,29.7c0.7,-3.1 1.6,-6.3 2.9,-9.8c1.2,-3.3 -0.7,-10.7 -3.8,-14.7C142,305.2 139.9,304.9 138.5,304.8z" fill="#008348" fill-opacity="1.0"/>
    <path d="M175.9,61.9c-8.9,1.6 -17.5,4 -25.9,7.2c2.7,5.2 4.1,11 4.1,17.1c0,8 -2.5,15.6 -7.1,21.9c7.8,-4.5 16.2,-8.1 25,-10.5c0.6,-0.6 1.1,-1.1 1.7,-1.6c-3.3,-5.4 -7.6,-14 -3.8,-25.7C170.9,66.9 173.2,64.2 175.9,61.9z" fill="#008348" fill-opacity="1.0"/>
    <path d="M232.3,104.4c3.2,1.6 6.7,5 5.3,11.3c-0.6,2.6 -2.7,5.1 -2.9,6.1c-0.3,1.7 -3.8,4.5 -5,6.8c-1.1,2.3 -1.2,4.1 -1,5.1l0,0c1.8,1.7 5.9,4 8,4.7c1.8,0.6 1.6,1.1 0.9,2.3c1.2,0.1 1.9,0.9 3.1,2.3c1.2,1.5 4.5,0.6 6.4,-0.5c2,-1 4.6,-1.4 6.7,1.1c2,2.5 5.1,7 6.6,11.3s3.1,7.7 3.5,8.4c0.5,0.7 -1.6,13 -2.1,18c-0.6,5 -1,7 -1.1,7.8c-0.1,0.8 3.2,-2.8 3.3,1.5c0.1,3.4 1.7,14.2 3.5,22.4c0.5,2 0.9,4 1.5,5.4c1.4,0.2 2.5,2.9 3.3,7c0.8,4.2 2.5,6.8 2.6,8.7c0.1,2 0.7,2.4 1.4,2.7c0.7,0.3 0.5,1.4 -1.6,3.7c0.5,0.3 1.1,1 1.6,1.5c0.6,-0.6 2.1,-2.4 2.1,-2.4s6.2,2.5 7.5,2.9c1.4,0.5 2.9,-2.8 6.9,-1.1c1.1,0.5 2.3,2 3.2,3.5c6.3,-13.5 9.8,-28.4 9.8,-44.2c0,-27.9 -10.9,-54.3 -30.6,-74.1c-12.1,-12.1 -26.6,-20.8 -42.4,-25.8C232.3,102.4 232.3,103.9 232.3,104.4z" fill="#ffffff" fill-opacity="1.0"/>
    <path d="M264.6,280.8c-1.6,-0.8 -2.6,0.3 -3.4,-5.9c-0.2,-1.8 -1.7,-4.2 -2.8,-5.3s-1.2,-3.3 -0.7,-5.1c0.9,-2.8 1.1,-5.4 1,-7.6c-0.1,-2.3 0.3,-5.1 3.5,-6.4c-1.1,-1.2 -1.7,-2.8 -2,-4.1c-4.6,-1.5 -5.5,-1.7 -6.4,-3.8c-1.6,-3.7 -2.5,-9.2 -3.1,-12.2c-0.2,-1.5 -0.3,-2.8 -0.5,-4.1c-1.5,-2.8 -4.7,-8.9 -7.2,-13.6c-0.9,-1.7 -1.8,-3.3 -2.4,-4.3c-2.3,-4 0,-9 1.1,-12.1c1.1,-3.1 2,-5.8 1,-8.7c-1,-3.1 -1,-3.7 -1.2,-5c-0.2,-1.2 -1.2,-2.8 -2.6,1.5c-1.4,4.3 -4,10.5 -5.4,17.1c-0.8,3.7 -1.4,7.7 -1.2,11.6c0.1,2.9 0.8,5.9 2,8.5c2.9,6.1 6.4,11.6 6,15c-0.5,3.4 -1.1,3.5 -1.2,4.1c-0.6,6.6 -3.4,19 -4.9,22.5c-1.5,3.6 -7.1,16.6 -8.4,22c-0.9,4.2 -3.5,13.2 -5.8,18.5c16.7,-3.2 32.1,-10.4 45.1,-20.6C265.6,282.2 265.6,281.3 264.6,280.8z" fill="#ffffff" fill-opacity="1.0"/>
    <path d="M140,133.6c1.2,1.6 2.8,3.1 5,4.2c5.5,2.8 6.7,4.9 6.7,9.6c0,4.9 0.9,14.7 2.5,16.4c1,-1 2.1,-2.5 2.4,-2.9c1.6,2.9 4.7,8.3 9.7,11.6c0.3,0.2 0.2,1.5 1,1.7c1.7,0.5 12.6,2.1 12.9,4.4c2.3,-2.3 5.9,-7.8 6.6,-9.7s4.6,-7.9 7.5,-11.3c0,-1.4 0,-2.1 0.1,-2.5c-0.8,0.7 -2,2.4 -3.8,3.2s-8,3.5 -12.6,5.8c-1.6,0.8 -4.4,1.7 -5.5,-6.6c-1.1,-8.1 0,-12.4 0.8,-14.4c0.8,-1.9 2.3,-3.6 5.1,-2.8s7.2,2.5 8.5,2.5c0.2,-0.9 1,-2.6 -2,-2.9c-2.1,-0.2 -7.8,-1.8 -11,-6.2c-1.2,-1.7 -2.1,-4 -2.3,-6.7c-6.4,1 -21,2.9 -24.3,3.7s-6,1.5 -7,-6c-0.5,-3.2 -1.2,-7.5 1,-6c1.8,-1.4 4.3,-2.9 8.6,-2.3c0.8,0.1 1.8,0.8 2.1,1.4c0.2,1.1 -0.2,2.8 -0.8,4.5c-1,3.1 -2.8,5.2 3.3,3.7c6.4,-1.5 14.5,-2.7 16.6,-3.2c0.2,-2.1 2,-5.5 4.2,-8c2.1,-2.5 2.5,-4.5 2.6,-5.3c0.1,-0.8 -0.7,-0.9 -1.7,0c-1.2,1.1 -5,3.4 -8.4,2.5c-1.4,-0.3 -3.1,-2.9 -4,-4.4c0.8,-1.6 2.6,-4.2 4.9,-6.9c-12,3.8 -23.1,9.8 -33,17.8c-0.1,1.2 0.1,4.2 0.9,7.3C137.1,128.2 138.1,131.1 140,133.6z" fill="#ffffff" fill-opacity="1.0"/>
    <path d="M147.8,286.8c4.6,-1.8 8.3,-1.7 11.8,3.1c1,1.4 1.8,5.3 10.4,1.8c-4.6,-5.5 -7.3,-12 -9.8,-20.7c-4,-13.8 -13,-29.5 -9.6,-36.6c-1.9,-1.8 -4.2,-8.7 -6.6,-7.9c-1.6,0.6 -3.8,0.6 -2,-4.7c0.8,-2.4 2.1,-5.2 4.6,-8.7c3.1,-4.2 7.9,-9.3 15.7,-15.3c0.7,-0.6 0.8,-1 0.3,-1.5c-0.8,-0.8 -1.6,-1.7 -2.4,-2.1c-0.8,-0.5 -1.6,-0.2 -2.3,0.5c-0.7,0.7 -1.8,1.5 -2.5,1.9s-6.1,-4.9 -8.8,-8.6c-2.8,-3.8 -5.8,-5.1 -6.7,-5.5c1.1,-1.2 3.6,-4 2.7,-3.6c-1.7,0.6 -4.6,0.9 -7.6,-2.3c-3.7,-4 -2.3,-6 -3.1,-6.6s-4.9,0.3 -7.8,-4.4c-3.1,-4.7 -4.3,-6.8 -1.8,-10.1c1.2,-1.7 1.7,-2.5 1.4,-4.6c-0.3,-2.1 0,-3.5 2.8,-6.2c2.8,-2.7 4.5,-5.2 5.8,-5c1,0.2 -1.8,-3.4 -3.6,-6.1c-0.5,-0.7 -0.8,-1.4 -1,-1.9c-0.5,-1.1 -1.1,-2.9 -1.4,-5c-19.7,19.8 -30.5,46 -30.5,74s10.9,54.3 30.6,74.1c4.6,4.6 9.6,8.8 14.9,12.4C143.8,284.7 146.6,285.7 147.8,286.8z" fill="#ffffff" fill-opacity="1.0"/>
    <path d="M88.2,65.7c9.2,2.4 16.1,9.8 19.1,13.9c0.8,1 1.6,0.9 1.9,0.1c0.7,-1.7 2,-7 2,-11.2c0,-9.4 1.2,-13.1 3.6,-17.5C103.9,51.6 94.2,57.3 88.2,65.7z" fill="#a73832" fill-opacity="1.0"/>
    <path d="M82.7,94.6c17.3,1.6 22.6,-8 23.7,-9.5c1.1,-1.5 -0.2,-2.4 -0.8,-3.2c-2.9,-4.2 -9.7,-11.5 -18.9,-13.9c-3.3,5.3 -5.1,11.5 -5.1,18.2C81.7,89.1 82,91.9 82.7,94.6z" fill="#a73832" fill-opacity="1.0"/>
    <path d="M151.2,93.9c-7.2,-3.1 -15.9,-0.2 -22,5.2c-6.2,5.4 -9.3,9.5 -11.4,22.3c-0.2,0 -0.6,0 -0.8,0c-9.2,0 -17.4,-3.5 -23.6,-9.2c10.5,-2.7 19.4,-7.5 29.4,-17c10,-9.4 14.9,-20.4 16.3,-25.6c1.4,-5.2 -0.6,-2.1 -1.6,0.2c-1.6,3.6 -6.8,13.5 -17,23s-18.1,14.2 -28.7,17.9c-3.5,-3.6 -6.3,-8 -8,-13c3.6,0.2 14.9,-1.1 20.6,-5.8c7.5,-6.1 8.3,-13.3 9.3,-23.6c1,-10.3 2.5,-13.3 5,-17.3c18.7,0.9 33.6,16.3 33.6,35.2C152,88.8 151.8,91.4 151.2,93.9z" fill="#a73832" fill-opacity="1.0"/>
    <path d="M150.2,97.4c-1.7,-2.4 -7.7,-3.5 -17.2,2.5c-0.9,0.6 -1.5,0.9 -0.5,2c2,2 5.1,5.9 7.2,11C144.5,108.9 148.1,103.4 150.2,97.4z" fill="#a73832" fill-opacity="1.0"/>
    <path d="M137,115.1c-2,-5 -3.7,-8.5 -5.7,-11c-1,-1.4 -1.2,-1.9 -3.2,-0.2c-5.3,4.6 -7.3,11.8 -8.5,17.4C126.1,120.7 132,118.5 137,115.1z" fill="#a73832" fill-opacity="1.0"/>
    <path d="M127.2,154.4c-1.5,-0.5 -2.6,1.2 -3.3,2.6c-0.7,1.4 -1.5,2.8 0.7,5.9c2.1,3.1 3.5,4.9 7.1,4.6c1.8,-0.1 3.4,-1.5 4,-2.3c0.6,-0.8 0.7,0.6 -0.2,1.9c-0.9,1.4 -1.6,4.5 0.1,6.7c1.7,2.1 5.2,4 9.7,1.2c4.6,-2.7 6.6,-6 7.2,-7.3c0.8,-1.5 0.8,-2.1 0,-3.1c-0.8,-0.9 -3.4,-5.2 -4,-13.6c-0.3,-5.1 0.6,-8.3 -2.6,-10.1c-3.2,-1.8 -10.3,-6 -11.2,-14.4c-0.3,-3.2 -0.1,-7.9 -3.3,-5.4c-3.2,2.6 -3.2,4.4 -3.5,6.3c-0.3,1.9 1.2,4.5 2.6,6.3c1.4,1.8 2.9,5.8 4.2,6.8c1.2,1 2,1.8 3.1,1.9c1,0.1 5.1,0.1 6.1,0.5s1.6,1.6 -0.9,1.6s-6.3,0.7 -7.9,0.9c-1.7,0.2 -3.3,0.3 -4.1,3.7c-0.8,3.4 -1.9,7.2 -2,8.5c-0.1,1.2 -0.8,1.9 -0.8,2.6c0,0.7 1.4,4 4.4,0.7s4.3,-6.6 4.9,-8c0.6,-1.6 1.2,-1.4 0.7,1.1c-0.6,2.5 -0.7,8.6 0.5,10.7c1.2,2.3 3.8,4.6 7,3.1c0.7,-0.3 1.8,-0.9 2.7,-0.8s-0.1,1.7 -0.9,2.4s-3.4,3.5 -7.9,-0.6c-1.1,-1 -2.7,-3.3 -3.1,-6.1c-0.1,-0.9 -1.4,-1.2 -1.9,-0.5c-0.6,0.8 -3.6,3.6 -5.8,1.6c-2.1,-2 -3.1,-3.2 -1.8,-7.3C127.3,155.4 127.8,154.6 127.2,154.4z" fill="#fab383" fill-opacity="1.0"/>
    <path d="M129.5,148.2c-0.5,1.5 -0.9,3.4 -1.1,4.1s-1.2,2.1 -2.1,0.2c-0.9,-1.9 -0.9,-3.4 0.6,-4.9c0.5,-0.5 1.1,-1.4 1.6,-0.9C128.8,147.2 129.6,147.9 129.5,148.2z" fill="#fab383" fill-opacity="1.0"/>
    <path d="M134.6,143c-0.9,0.5 -2.9,0.5 -3.6,2c-0.5,1 -2.3,-0.1 -1.4,-1.4s1.6,-1.1 2.1,-1.5c0.6,-0.3 0.8,-1.4 1.9,-0.8C134.8,142 135,142.8 134.6,143z" fill="#fab383" fill-opacity="1.0"/>
    <path d="M208.4,87.5c-3.2,0.3 -6.1,2.3 -8.9,4.3c-2.9,2 -13.5,10.9 -15.9,12.7c2.6,1.4 3.3,4.1 2.4,8.5c-0.2,1 0,1.4 0.7,0.7c0.7,-0.7 3.8,-4.1 3.7,-6.7c-0.1,-2.7 -1.4,-4.3 -1.6,-4.6c-0.2,-0.3 0.9,-1.7 2.1,1.1c1.2,2.8 0.9,6.8 -2.8,11.1c-3.7,4.4 -6.7,4.3 -8.1,5.1c-1.6,0.8 -3.2,2 -1.7,4.4c1.5,2.4 4.3,1.5 5.4,0.7c1.1,-0.8 2.7,-1.7 6.3,-1.4c3.6,0.3 4.7,-1.9 2.4,-4.4c-0.8,-0.8 -2.8,-2.6 -0.3,-2.6c1.5,0 3.3,3.3 4.3,4.2c1,0.9 3.3,1.2 6.3,1.5c3.1,0.2 7.7,1.4 7.7,4.3c0,1.8 -1,2.3 -2.3,0.9c-0.5,-0.6 -1.2,0.3 -1.8,0.9c-1.9,1.9 -6.8,7 -10.3,7.9c-3.5,0.9 -4.7,-0.1 -9.4,-2.6c-4.6,-2.5 -8.8,-5 -10.1,-5.8c-1.2,-0.8 -3.8,-2.6 -2.6,1c1.2,3.6 4.3,7.2 10.3,9.3c6.1,2 6.9,2.7 8.3,3.4c1.4,0.7 0.6,1.4 -1.2,1.1c-1.6,-0.2 -3.3,-1.6 -1.9,1.5s3.4,6.3 9.5,5.5c6.1,-0.8 6.3,-2 10.2,-8.5c0.7,-1.1 1.4,-0.3 0.9,2.6c3.1,-1.5 4.7,-1.9 6.4,-2.4c1.8,-0.5 6.4,-2 9.5,-7.7c1.6,-2.9 2.4,-4 2.1,-6.9c-0.1,-1.1 1.6,-3.4 3.3,-5c1.7,-1.6 6.3,-7.5 4,-11.8c-2.4,-4.3 -6.3,-2.1 -8.1,1c-1.9,3.2 -4.1,6.6 -4.2,12c-1.4,-0.5 -2.7,0 -3.4,1.1c-0.3,0.6 -5.3,-0.1 -7,0.3c-1.7,0.5 -2.3,-0.6 -0.5,-2.9c1.8,-2.4 8.1,-10.9 7.7,-17.3c-0.1,-1.9 0.1,-2.3 0.5,-3.7c0.3,-1.8 0.6,-1.9 -1.7,-3.2c-1.5,-0.8 -1.6,-3.2 -1.8,-5c-0.2,-1.9 -0.7,-1.9 -2.8,-1.5C212.4,91.1 209.7,89.5 208.4,87.5z" fill="#fab383" fill-opacity="1.0"/>
    <path d="M195.3,122.5c-0.6,1.4 -2.3,2.7 -6.2,2.3c-1.9,-0.2 -3.8,-0.2 -4.2,1.2c-0.2,1 -1.1,1 -2.4,0.9c-1.2,0 -2.7,-0.3 -2.7,0.1c0,0.5 5.5,3.7 7.3,4.6c1.8,0.8 4.5,2.8 6.7,2.6c2.9,-0.2 5.4,-1.7 9.7,-6.3c1.8,-1.9 3.2,-2.8 1.5,-3.6c-1.1,-0.6 -2.3,-0.7 -3.8,-0.7C199.8,123.8 196.5,123.6 195.3,122.5z" fill="#fab383" fill-opacity="1.0"/>
    <path d="M174.4,122.6c-1.5,-0.1 -1.7,-1.1 -0.7,-2.8s1.9,-3.3 3.3,-4.3c0.2,0.7 0.7,1.6 1.4,2c-0.9,0.9 -2,2.1 -1.8,4.5L174.4,122.6z" fill="#fab383" fill-opacity="1.0"/>
    <path d="M208.5,115.6c-1.9,0 -4.7,-0.7 -6.8,-2c-2,-1.5 -2.7,-2.1 -2.4,-4.2c0.2,-1.2 0.3,-2 0.5,-2.5c0.1,-0.3 0.1,-0.6 0.1,-0.8c0.2,-1 0.1,-1.6 -0.2,-2c-0.1,-0.2 -0.3,-0.3 -0.7,-0.3c-0.5,0 -1,0.2 -1.7,0.8c-1.1,-0.9 -2.3,-1.9 -3.2,-2.6c-0.7,-0.6 -1.1,-1 -1.4,-1.1c-0.2,-0.1 -0.6,-0.5 -0.6,-0.7s0.1,-0.5 0.3,-0.8c0.1,-0.1 0.3,-0.2 0.7,-0.2h0.1h0.1c0.2,0 0.6,0 0.8,-0.3c0.2,-0.2 0.3,-0.8 0.2,-1.5c0,0 0.1,-0.1 0.6,-0.1c0.1,0 0.2,0 0.5,0c0.1,0 0.3,0 0.5,0c0.3,0 0.5,0 0.6,-0.1c0.2,-0.1 0.3,-0.3 0.3,-0.6c0.1,-0.2 0.1,-0.3 0.5,-0.3c0.2,0 0.5,0 0.9,0.1c0.1,0 0.1,0 0.2,0c0.3,0 0.6,-0.3 0.7,-0.5l0.1,-0.1c0.1,-0.2 0.2,-0.3 0.6,-0.3c0.1,0 0.1,0 0.2,0c0.3,0 0.6,0.1 0.8,0.2c0.3,0.1 0.6,0.1 0.9,0.1c0.7,0 0.9,-0.5 1,-0.9c0.2,-0.8 0.3,-1 0.7,-1c0.2,0 0.7,0.1 1.2,0.5c0.5,0.3 0.9,0.5 1.2,0.5c0.6,0 0.9,-0.3 1,-0.9c0,0 0,0 0.1,0c0.3,0 0.9,0.2 1.6,0.6l0.3,0.2c1,0.6 3.3,1.8 5.8,4.7c0.6,0.7 0.7,1.1 0.7,1.2l0,0h-0.1c-0.3,0.1 -0.9,0.1 -1,1.1c-0.1,0.6 -0.2,0.8 -0.3,0.9c0,0 -0.1,-0.1 -0.2,-0.3c-0.1,-0.3 -0.3,-0.6 -0.7,-0.6c-0.1,0 -0.1,0 -0.2,0c0,0 -0.1,-0.1 -0.1,-0.2s-0.2,-0.6 -0.7,-0.6c-0.2,0 -0.3,0.1 -0.5,0.2c0,0 0,0 -0.1,0c-0.1,-0.1 -0.2,-0.6 -0.7,-0.6c-0.1,0 -0.2,0 -0.2,0h-0.1c0,0 0,0 -0.1,-0.1c-0.1,-0.2 -0.2,-0.2 -0.5,-0.2c-0.1,0 -0.3,0 -0.5,0.1c-0.2,0.1 -0.3,0.1 -0.5,0.1c-0.1,0 -0.1,0 -0.1,-0.1c-0.1,-0.3 -0.3,-0.3 -0.6,-0.3s-0.3,0.1 -0.6,0.2c-0.1,0.1 -0.3,0.1 -0.5,0.1c0,0 -0.1,0 -0.2,-0.1c-0.1,-0.1 -0.2,-0.3 -0.6,-0.3c-0.2,0 -0.5,0.2 -0.6,0.3v0.1c-0.1,0.2 -0.2,0.2 -0.3,0.2h-0.1c-0.1,0 -0.2,-0.1 -0.3,-0.1c-0.3,0 -0.6,0.2 -0.7,0.5c-0.1,0.1 -0.1,0.1 -0.1,0.1s-0.1,0 -0.2,0c-0.1,-0.1 -0.2,-0.1 -0.3,-0.1c-0.5,0 -0.7,0.3 -0.8,0.7c-0.1,0.2 -0.2,0.3 -0.2,0.3s0,0 -0.1,0c-0.2,0 -0.3,-0.1 -0.5,-0.1c-0.7,0 -0.7,0.6 -0.8,1.1c0,0.1 0,0.2 0,0.3c-0.1,0.9 -0.6,4.6 -0.5,5.7c0,0.9 1.2,0.9 1.7,0.9c0.8,0 1.9,-0.1 3.4,-0.3c2.7,-0.3 7.8,-1.9 10.5,-4.1c0.7,-0.6 1.2,-0.6 1.4,-0.6c0.1,0 0.2,0 0.2,0c0,0.1 -0.3,0.8 -0.9,1.4c-0.1,0 -0.1,0.1 -0.2,0.2c-0.8,0.7 -2.7,2.4 -6.6,3.2c-3.7,0.7 -7.1,1.4 -8.3,1.4c-0.1,0 -0.2,0 -0.2,0c-0.1,0 -0.1,0 -0.2,0c-0.2,0 -0.3,0.1 -0.5,0.2c-0.1,0.2 0,0.5 0.3,0.7c0.3,0.3 0.9,0.5 1.4,0.5c0.1,0 0.3,0 0.5,0c0.1,0 0.6,0.3 0.8,0.7c0.8,0.8 2,1.9 3.6,1.9c2,0 4.9,-2.1 5.8,-2.8c0.3,-0.3 1.2,-0.8 1.8,-0.9c-0.1,0.1 -0.2,0.2 -0.5,0.5l-0.1,0.1c-1.8,1.8 -3.7,3.7 -5.7,3.8C208.8,115.6 208.6,115.6 208.5,115.6L208.5,115.6z" fill="#000000" fill-opacity="1.0"/>
    <path d="M232.3,113.1c-1.2,0.9 -2,1.2 -2.1,2.8c-0.1,1.6 -0.5,4.3 -1,4.5c-0.8,0.3 -0.7,-1.5 -0.9,-0.9c-0.3,0.8 -1.2,0.5 -1.6,-0.2c-0.1,-0.3 -2.9,-0.3 -0.7,-3.5c2,-2.9 3.6,-4.5 5.1,-5.2C232.5,109.9 234.9,111.2 232.3,113.1z" fill="#000000" fill-opacity="1.0"/>
    <path d="M287.1,246.5c-0.6,-1.4 0.3,-3.5 3.2,-1.9c2.8,1.6 5,2.9 2.9,9c-2,6.2 -3.5,9.7 -4.3,12.3c-0.8,2.6 -3.8,5.9 -2.8,1.5c1,-4.4 1.6,-9.6 1.1,-12.3c-0.8,-5 0.8,-4.6 0.3,-6.9C287.5,247.4 287.3,246.9 287.1,246.5z" fill="#fab383" fill-opacity="1.0"/>
    <path d="M297.7,251.8c0.8,2.4 1.7,7.9 0.3,10.2c-1.4,2.3 -5.5,8.4 -7,10c-1.6,1.6 -2.8,0.9 -1.8,-0.8c1,-1.7 2.4,-4 2.4,-4.7c0,-0.8 -0.1,-1.7 1.2,-4.3c1.4,-2.6 3.7,-11.2 4,-11.9C297,249.6 297.5,251.1 297.7,251.8z" fill="#fab383" fill-opacity="1.0"/>
    <path d="M268.8,272.5c-0.7,-2 -1,-5 -2.1,-6.7c0.9,-2.5 3.8,-9 8.8,-11.1c0.6,-0.2 0.9,-0.8 0.7,-1.2c-0.2,-0.5 0.7,-0.8 1.1,0.8c0.5,1.6 1.2,6.1 1.2,6.1c0.2,1 -0.2,1.8 -0.5,3.2c-0.2,1.4 -0.8,4.4 -0.5,6c0.3,1.6 0.9,2.7 4.1,2c1.6,-0.3 1.5,-0.8 1.9,-2.1c0.5,-1.4 1.7,-5.2 2.1,-7.2c0.5,-2.1 0.1,-7.3 -0.3,-8.7c-0.5,-1.4 0.1,-5.9 -0.1,-6.8c-0.3,-0.9 -0.6,-2.3 -3.4,-3.2s-3.6,-1.1 -5.5,0.8c-1.9,1.9 -2.6,2.7 -3.5,3.6c-0.9,0.9 -3.2,0.1 -1.2,-1.7c1.9,-1.8 3.7,-3.6 4.3,-4.2l-0.6,-1.5h-1c-3.1,3.1 -7,4.9 -9.7,5.4c-1,0.2 -2.9,0.3 -1.6,2.1c0.3,0.5 0.5,1.7 1.2,1.2c0.8,-0.5 2,-2.5 3.2,-1.6s-0.2,3.1 -1.6,4.1c-1.4,1 -2.8,2 -3.8,2.6s-1.6,1.1 -1.5,2.9c0.1,1.8 0.2,5.1 -0.8,7.5c-1,2.5 -0.5,3.2 0.5,4.9s2.4,3.2 2.8,5.9c0.5,2.7 0.7,3.4 2.5,3.2c1.8,-0.2 2.5,-1 3.2,-2.1L268.8,272.5z" fill="#fab383" fill-opacity="1.0"/>
    <path d="M269.5,277.7c-0.8,1.4 -2.1,3.5 -2.1,5.4c0,1.9 -1.9,4 -1.7,4.9c0.2,0.9 2.7,3.3 4.2,5.8c1.5,2.5 3.4,6.2 3.4,12.3c0,6.2 -2,14.6 -2.3,15.7s-0.8,2 0.9,3.6c1.7,1.6 4.4,4.5 5.4,11.1c1,6.7 1.7,10.1 2.1,10.4s0.3,0.9 0.3,2.1c0,1.2 1.1,8.3 1.9,9.6c0.8,1.4 0.7,-7.6 0.6,-10.2c-0.1,-2.6 0.1,-14.9 0.6,-16.7c0.5,-1.8 0.9,-3.8 -0.7,-6.1c-1.6,-2.3 -4.3,-6.2 -2.3,-12.7c2,-6.6 5.3,-6.4 4.3,-8.9c-1,-2.6 -2.8,-4.4 -4.2,-5.9c-1.4,-1.5 -0.2,-5 -0.3,-6.4c-0.1,-2.7 -2.3,-3.2 -2.5,-6.2s-0.5,-5.5 1.8,-8.5c2.3,-3.1 -0.8,-2.9 -1.8,-4.9c-1,-1.9 -1.6,-4.4 -0.7,-8.4c0.5,-2 0.2,-2.6 -0.3,-2.8s-2.9,-0.7 -2.9,-0.7l-3.5,6.9c0.6,1.4 0.8,3.4 0.8,4.7L269.5,277.7z" fill="#a73832" fill-opacity="1.0"/>
    <path d="M237,141.2c-2.7,3.7 -7,13 -9,18.9c-2,5.9 -6.7,19.8 -3.4,28.9s9.6,3.4 11.1,-0.1c1.5,-3.5 3.7,-9.4 4.4,-11c0.7,-1.6 1,-2.5 2.3,1.2c1.2,3.7 3.1,12.6 3.1,13.3s-1.2,3.1 -2.6,6.6s-2.1,6 -0.8,8c1.4,2.1 6.7,11.2 8.3,15.2c1,2.4 1.9,2.8 4.6,2.1c2.7,-0.7 9.2,-2.9 11.1,-3.8c1.9,-0.9 1,-2.5 0.5,-4.4c-0.9,-2.9 -4.3,-19.1 -4.3,-21.1c0,-2.1 0.6,-5 -2.3,-1.8c-1,1.1 -2.4,0 -2,-1.6c0.3,-1.6 3.7,-23.4 4,-26.1c-1.9,-4.2 -7.5,-17.3 -9,-19.7c-1.6,-2.4 -2.1,-2.5 -4.5,-1.2c-2.4,1.2 -7.6,3.2 -9.5,-1.4c-0.3,-0.8 -0.9,-2.6 0.5,-2.8l-1,-0.3C238.2,140.1 237.4,140.7 237,141.2z" fill="#ffffff" fill-opacity="1.0"/>
    <path d="M266.4,221.8c-2,1.2 -9.2,4.3 -12.1,4.7c-2.9,0.5 -2.3,1.2 -1.7,3.5s2.3,8.9 3.2,11.3c0.9,2.4 2.1,2.3 4.5,2.3c3.6,-0.1 9.6,-1.7 14,-5.8c-1.2,-1.5 -3.4,-8.5 -4.1,-11.4C269.6,223.3 269.6,220 266.4,221.8z" fill="#ffffff" fill-opacity="1.0"/>
    <path d="M202.2,157.1c-0.2,0.5 -1,1.8 -2.8,1.8c-1.8,0 -3.3,-0.6 -4.4,1c-1.1,1.6 -7.2,9 -8.6,13.7c1.4,2.8 3.2,7.8 4.5,11.4c4.4,-3.7 18.3,-17.3 20.9,-20c1,-1 1.1,-1.9 -0.3,-2.9c-1.5,-1 -6.9,-4.4 -7.7,-5C202.9,156.7 202.4,156.7 202.2,157.1z" fill="#ffffff" fill-opacity="1.0"/>
    <path d="M166.8,176.8c-0.9,3.5 -2.6,9.5 -5.4,14.2c1.1,1.8 2,3.4 3.4,4c3.2,-2.3 9,-7.7 10.7,-9.7c1.7,-2 3.8,-5.1 3.8,-5.8s-0.8,-0.9 -1.8,-0.7c-1,0.2 -5.2,-1.5 -9.2,-2.3C167.3,176.4 166.9,176.4 166.8,176.8z" fill="#ffffff" fill-opacity="1.0"/>
    <path d="M164.4,173.5c-1.2,-0.2 -5.5,-4.9 -7,-7.2c-1.5,-2.5 -1.7,-2.3 -2.3,-0.5c-0.6,1.8 -2.7,5.8 -4.2,7.6c-1.5,1.9 -5.3,6.8 -6.3,7.9c-1,1.1 0,1.6 0.9,2.5c0.9,0.9 5.5,6.6 6.6,7.7c1,1.2 2.1,3.5 4.9,1c2.7,-2.5 6,-6.9 7.3,-11.5c1.5,-4.6 1.6,-7 2.8,-6.8v-0.9l-0.3,-0.6l-0.7,-0.6c0.1,0.3 0.1,0.7 -0.1,1.1C165.9,173.9 165,173.6 164.4,173.5z" fill="#ffffff" fill-opacity="1.0"/>
    <path d="M233.1,70.3c-3.1,3.6 -9,6.7 -19.3,9.3c-10.2,2.6 -20,9.7 -24.1,13.2c-4.2,3.5 -14.6,12 -19.7,14.1c-1.4,0.6 -4.2,2.5 -0.6,2.9c2.7,0.3 4.6,-1.2 10.4,-5.5c5.9,-4.3 10.4,-7.3 14.8,-11.6c4.2,-4.1 11.6,-7.8 19.8,-10.1c8,-2.3 18.7,-5.8 21.7,-9c1.5,-1.6 1.6,-2.4 0.2,-3.7C235,68.5 234.3,68.8 233.1,70.3z" fill="#ffffff" fill-opacity="1.0"/>
    <path d="M181.5,105.6c-0.9,0.5 -1.2,1 -2.3,4.3c-1,3.3 -0.9,5.2 0,6c0.6,0.6 1.5,0.6 1.9,0.6c0.3,0 0.7,0.1 0.6,-0.8c-0.1,-0.9 -0.1,-5 2.9,-6.8c0.6,-0.3 -0.1,-2.7 -2,-2.4C182,106.5 182.6,105 181.5,105.6z" fill="#ffffff" fill-opacity="1.0"/>
    <path d="M146.9,118.5c1.6,0 2.6,0 2.5,1.8c-0.1,1.8 -0.9,4.3 -1,6c-0.1,1.7 -0.1,2.4 0.9,2.4s-1.5,1 -2.8,1.2c-1.4,0.2 -3.4,1 -4.5,-4.7c-0.3,-1.8 -0.2,-4.6 -0.5,-5.3C142.9,119.1 145,118.5 146.9,118.5z" fill="#ffffff" fill-opacity="1.0"/>
    <path d="M176.8,123.2c0.5,2.3 1,2.3 0.6,2.6s-0.9,-0.9 -2.7,-0.6c-1.7,0.2 -15.8,2.5 -16.8,2.6c-3.2,0.3 -3.3,-0.2 -0.3,-0.8c2.9,-0.6 13.6,-2.6 16.7,-3.2L176.8,123.2z" fill="#ffffff" fill-opacity="1.0"/>
    <path d="M159.7,294.8c1.5,0.9 5,1.9 10.9,-0.6c6,-2.5 12.6,-0.8 13.6,3.5c1,4.3 1,9.7 -0.8,12.1c-1.6,2 -3.1,1.8 -4.9,1.2c-3.3,-1 -10.7,-4.5 -12.9,-5.5c-2.1,-1 -5.8,-2.1 -8.3,-2.1c-1,-2.1 -0.9,-5.9 -0.2,-7.1c0.7,-1.4 0.7,-2.7 1.2,-2.4C158.9,294.2 159.7,294.8 159.7,294.8z" fill="#ffffff" fill-opacity="1.0"/>
    <path d="M183.2,314.5c1.5,0 4.1,0.6 5,3.3c0.7,2.1 5.1,2.7 6.9,2.6c1.9,-0.1 1.6,0.9 1.5,2c-0.1,1.1 -0.5,4.5 -0.5,5.9s0.3,6.1 0.6,6.9c0.2,0.9 -0.6,1.4 -1.6,1.8s-4.7,1.6 -7,-0.1c-1.2,-0.9 -2.7,-2.1 -1.2,-2.3c1.5,-0.1 -1.8,-12.8 -2.7,-15C183.2,317.4 180.6,314.5 183.2,314.5z" fill="#ffffff" fill-opacity="1.0"/>
    <path d="M144.6,288.1c0.6,0.2 0.9,0.8 1.4,1.6c0.5,0.8 0.6,1.5 -0.1,2.3c-1.2,1.4 -2.7,7.5 -2.5,11.9c-0.8,-0.2 -2.5,-0.6 -3.4,-0.3c-0.3,-2.5 -0.1,-10.2 1,-12.7C142.2,288.3 143.3,287.6 144.6,288.1z" fill="#ffffff" fill-opacity="1.0"/>
    <path d="M144.9,356.5c2.8,3.2 8,7.9 12,9.6c4,1.7 6.6,2.3 10,1.9c2.8,-0.2 2.3,0.9 0,1.2c-2.3,0.3 -7.3,0.3 -10.7,-1.5c-3.4,-1.8 -8.7,-5.1 -12.1,-10C143.2,356.7 144,355.5 144.9,356.5z" fill="#ffffff" fill-opacity="1.0"/>
    <path d="M203.3,348.7c-2.3,1 -6.4,3.2 -10.5,4.2c0.5,2 0.6,2.9 0.6,3.5c2.5,0 7.2,-1.7 11.1,-4.2c0.9,-0.6 1.2,-1.2 0.9,-2C205,349.4 204.6,348.1 203.3,348.7z" fill="#ffffff" fill-opacity="1.0"/>
    <path d="M176.8,339.4c-0.6,-0.6 2.6,-1.2 3.3,-1.2c0.8,0.5 2.3,1.8 2.7,2.3c0.3,0.3 0.1,0.6 -0.2,0.8c-0.3,0.2 -2.3,0.7 -3.2,0.8C178.5,341.2 177,339.8 176.8,339.4z" fill="#ffffff" fill-opacity="1.0"/>
    <path d="M182.6,292.8c-0.9,-0.7 -0.8,-1 -0.3,-1.7c0.5,-0.7 0.9,-1.1 1.4,-1.4s1.1,-0.3 1.9,0.8c0.8,1.1 5.1,8.1 6,10.1c0.9,1.9 2,0.7 1.6,-0.5c-0.5,-1.1 -1.4,-3.1 -1.7,-3.6c1.2,-3.8 2.5,-9.6 2.5,-13.5c0,-3.8 -0.9,-7.6 -1.6,-8.9c3.1,0.1 9.6,0 12.2,-0.8c2.6,-0.8 0.5,-1 -0.6,-0.9c-1,0.1 -8.3,0.1 -13.6,-0.6c-9.2,-1.1 -18.2,-6.3 -21,-9.8c-0.5,-0.6 -3.2,-0.3 -0.9,1.5c2.3,1.8 7.9,7.1 16.4,8.6c1.9,0.3 5,0.9 5.4,7.8c0.5,7 -0.2,11.4 -0.2,12.1s-0.5,0.9 -1,0.1c-0.6,-0.8 -2.5,-3.4 -3.5,-4c-1,-0.6 -1.7,-0.5 -2.6,0.2c-0.9,0.7 -2.3,2 -2.8,2.7L182.6,292.8z" fill="#ffffff" fill-opacity="1.0"/>
    <path d="M164.7,314.8c-0.8,0 -5.9,0.3 -6.9,0c-1,-0.3 -1.8,-1.6 -1,-2.1c0.9,-0.6 2.6,0.2 4.4,0.2c1.7,0 3.6,-0.5 4.1,-0.2c0.5,0.2 1,0.2 1,2.3L164.7,314.8z" fill="#ffffff" fill-opacity="1.0"/>
    <path d="M152.4,345.5c-1.5,-0.9 -3.2,-5.1 -3.5,-13.3c-0.1,-2.8 1,-7.5 1.9,-9.7s-0.6,-1.4 -0.9,-0.6c-0.3,0.8 -1.5,4 -1.8,6.3c-0.3,2.4 -0.9,5.9 0,10.9c0.9,5.1 1.4,6.6 1.6,7.5L152.4,345.5z" fill="#ffffff" fill-opacity="1.0"/>
    <path d="M203.7,77.8c1.5,0.1 3.2,0.1 3.6,-1c0.3,-1 0,-1.7 -0.5,-1.9c-0.5,-0.2 -0.7,-0.1 -0.5,-1.1c0.2,-1 0.9,-0.9 0.9,-2.5c-0.1,-1.6 -1.2,-1.6 -2.3,-1.2c-1,0.3 -1.5,0.8 -2.5,2.1s-0.6,-0.9 -0.3,-1.2c0.1,-0.3 0.6,-2.9 -0.8,-3.4c-0.8,0.3 -1.6,0.8 -2.3,1.1c-0.2,0.5 -0.5,1 -0.7,1.6c-0.6,1.5 -1.2,0.3 -1.7,-0.3l0,0c-1.5,0.8 -2.8,1.6 -3.8,2.3c-0.1,0.1 -0.2,0.1 -0.3,0.2c0.1,0.9 1.2,2 1.8,2.4c0.7,0.5 0.2,1.5 -0.6,1.5c-0.9,0 -2,-0.6 -3.2,0.7c-1.1,1.4 -0.3,2.6 0.7,2.6c1,0 1.9,0.3 2.4,1.6c0.3,1.2 0.7,1.7 2.1,1.9c1.5,0.1 2.3,-0.9 2.7,-1.6c0.3,-0.7 0.9,-1.6 1.5,-1.4c0.9,0.3 0.8,1.2 0.6,2.4c1,-0.6 2.1,-1.2 3.3,-1.8c-0.2,-0.9 -0.8,-1.8 -1.1,-2.3C202,77.8 202.2,77.5 203.7,77.8z" fill="#008348" fill-opacity="1.0"/>
    <path d="M216.2,61.5c-0.6,0.1 -1,0.2 -1.6,0.5c0.2,1.2 0.8,2.9 0.5,3.2s-1.6,0.5 -2.6,0.8c-1,0.3 -3.4,2.5 -2.1,4.2c1.2,1.6 1.6,2.6 1.8,3.4c0.2,0.8 2.3,1.8 3.6,0.1s2.5,-3.5 2.8,-2.4c0.3,1 0.2,3.4 0,4.6c0.3,-0.1 0.6,-0.1 0.9,-0.2C220.1,69.4 218.5,65 216.2,61.5z" fill="#008348" fill-opacity="1.0"/>
    <path d="M185.5,91.6c-0.8,-0.6 -1,-1.6 -0.1,-1.8c0.9,-0.2 2.3,-0.5 4.6,-1.5c2.4,-1 1.1,-2.7 0.1,-3.2c-1,-0.5 -1.1,-1.5 -1,-2.5c0.1,-1 -0.1,-2.6 -2.3,-1.8c-2,0.8 -1.4,2.8 -1.9,3.5c-0.6,0.7 -0.9,0.5 -0.8,-0.6c0.1,-1 -0.8,-1.7 -1.2,-1.9c-0.3,-0.2 -1.2,-0.3 -2,-0.5c-2.1,1.9 -4.1,4 -5.5,6c0.3,0.7 1.1,1.5 1.6,1.6c0.6,0.2 1.4,0.6 1.4,1.7c0,0.9 -2.1,1 -3.6,1c1,2.7 2,4.6 3.4,6.1c0.3,-0.1 0.7,-0.2 1.4,-0.5c1.7,-0.7 2.3,-3.4 2.6,-4.2c0.2,-0.8 1,-0.6 1.5,0.3c0.3,0.7 0.5,1.4 0.6,2c1,-1 1.9,-1.9 2.9,-2.8C186.3,92.3 185.9,92 185.5,91.6z" fill="#008348" fill-opacity="1.0"/>
    <path d="M215.2,158.6c0.3,0 -0.6,-4.1 0.2,-4.2c0.7,-0.1 1,2.1 2.6,1.9c1.6,-0.2 1.9,-1.8 1.7,-3.6c-0.2,-1.7 0.8,-0.8 1.6,-2c0.8,-1.2 -0.9,-2.9 -2.8,-1.7c-1.9,1.1 -1.6,-0.3 -0.6,-1c1,-0.6 0.2,-2.8 -1.8,-2.1c-1.6,0.6 -2.4,-0.5 -3.1,-0.9c-0.6,0.2 -1.1,0.5 -1.7,0.7c-0.1,0.5 0,1 0.1,1.6c0.1,0.7 0.5,2.6 -0.7,1.8c-1,-0.7 -2.4,-1 -2.8,0.2c-0.3,1.2 0.3,1.4 0.2,2.1s-2.1,0.9 -1.1,2.6c0.9,1.6 2.4,0.7 3.3,0.1c0.9,-0.6 1.8,0.1 1.5,0.9c-0.2,0.7 -0.8,2.8 -0.8,4.3c0.5,0.3 0.9,0.6 1.4,0.9C213.1,159.7 214.1,158.7 215.2,158.6z" fill="#008348" fill-opacity="1.0"/>
    <path d="M184.7,154.8c0.8,-0.2 2.5,1.5 4,0.5c1.5,-1 -0.6,-2 -0.3,-2.8c0.2,-0.8 0.9,-2.5 0,-3.3c-1,-0.8 -2,0 -3.2,1.1c-1,1.1 -0.7,-1 -0.1,-2c0.7,-1.2 0,-2 -1.2,-2.3c-1.2,-0.2 -1.6,1.5 -2.5,0.7c-1.4,-1.2 -3.4,-0.7 -2.9,1c0.5,1.7 1,2.3 0,2.5c-1,0.2 -2,-2.6 -3.3,-0.3c-1.2,2.3 0.7,2.9 0.6,4.6c-0.2,1.7 0.5,3.5 1.5,3.6c1,0.2 2,-0.9 2.6,-1.6c0.6,-0.7 1.9,-1.1 1.7,0.1c-0.1,0.9 -0.2,2.7 -0.2,3.8c2,-1 4.3,-2 5.4,-2.5c0,0 0.1,0 0.1,-0.1c-0.6,-0.2 -1.4,-0.6 -2.1,-1.1C183.7,155.9 183.8,155 184.7,154.8z" fill="#008348" fill-opacity="1.0"/>
    <path d="M159.8,205.8c2.6,-0.8 2.7,1.2 2.4,2.9c-0.3,1.7 -0.3,5.3 -0.2,7l4.3,0.2c-0.2,-1.1 0,-4.4 0.1,-6.3c0.1,-1.9 2,-4.9 2.7,-1.9c0.7,2.9 3.6,3.1 5.7,1.8c2,-1.2 3.5,-4 5.7,-7.7c2.1,-3.8 -0.7,-4.9 -2.4,-4.6c-1.7,0.2 -3.4,0.5 0.5,-2.7c3.5,-2.9 -2.4,-4.4 -5.2,-5c-4.5,4.7 -10.1,10.2 -15,14.4c-0.7,0.6 -1.2,1 -1.8,1.6C157,205.9 158.1,206.3 159.8,205.8z" fill="#008348" fill-opacity="1.0"/>
    <path d="M155.3,234c2.1,-0.7 3.5,4 6.7,1.2c3.2,-2.7 0.9,-5 0.8,-7.1c-0.1,-2.3 2.5,-3.2 1.7,-6c-1.2,-4.3 -5.2,-0.2 -7.6,2.1c-2.5,2.4 -2.6,0.5 -0.1,-3.4s-1.6,-5.1 -4.1,-4.1c-2.1,0.9 -4.2,0 -5.5,-1.1c-0.9,1.5 -1.7,2.9 -2.4,4.4c-2.1,4.4 -0.7,4.5 0.9,4.5s5,6.7 5.4,7.8c0.1,0.5 1.4,2.1 2.8,4.3C153.8,235.7 154,234.5 155.3,234z" fill="#008348" fill-opacity="1.0"/>
    <path d="M216.7,189.8c-2,-0.5 -4.6,-0.8 -5,3.4c-0.1,1.6 1.5,2.8 2.9,3.4c1.5,0.6 1.2,1.6 -0.3,1c-1.6,-0.6 -2.8,-0.9 -4,2.4c-1.1,3.3 0.9,3.7 1.9,4s1.8,0.5 1.6,1.8c-0.2,1.4 -0.9,5.3 1.7,5.7s4.9,-2.8 5.7,-4.4c0.8,-1.6 1.7,-3.2 1.9,-1.4c0.2,1.8 -0.1,2.7 -1,4.7c-0.9,2 -0.9,2.9 0.5,2.8s3.6,0 4.3,-1.6c0.7,-1.6 1.7,-4.6 1.8,-6.7c0.1,-1.4 1.2,-1.5 2.1,-1.4c0.2,-2.3 0.6,-4.5 0.9,-6.4c-4.4,0.7 -8.1,-4.7 -9.5,-9.4C220.6,189.1 218.4,190.3 216.7,189.8z" fill="#008348" fill-opacity="1.0"/>
    <path d="M195.6,189.1c-0.8,1.4 -3.1,5.2 -2,6.4c1,1.2 2.1,-1.2 3.1,-0.3c0.9,0.9 2.9,1.9 2.9,1.2c0,-0.7 0.2,-2 0.6,-3.8c0.3,-1.8 1.1,-2.8 1.9,-1.4c0.8,1.5 1.9,2.7 4.7,2c2.8,-0.7 2.5,-3.6 1.9,-5.8c-0.6,-2.1 1.5,-3.2 2.5,-3.7c1,-0.6 3.6,-2.6 1.7,-4.4c-1.9,-1.8 -3.6,0.8 -5.3,1.1c-1.7,0.3 -1,-1.1 2.5,-3.8c3.1,-2.4 0.5,-4.6 -1.4,-5.4c-4.9,4.9 -13.3,12.8 -15.3,14.6c-0.7,0.7 -1.2,1.4 -1.8,2.3C196.2,186.1 196.4,187.8 195.6,189.1z" fill="#008348" fill-opacity="1.0"/>
    <path d="M223.5,234.1c1.5,1.4 5,3.3 7.3,1c2.5,-2.3 -0.6,-4.7 -0.9,-6.6c-0.3,-1.8 1.8,-2.9 0.7,-5.9c-1.9,-5.1 -4.9,1 -6.6,2.7c-1.7,1.7 -1.4,-1.1 0.1,-2.7c0.8,-0.8 4.3,-2.9 2.3,-5.3c-2,-2.4 -5,-1 -6.4,0c-1.5,1 -2.6,2.3 -4.9,1.6c-2.3,-0.7 -4.2,-0.9 -5.5,2.4c-1.4,3.3 1.2,2.4 3.4,4.7c2.1,2.4 0.8,2.5 -0.9,1.9c-1.7,-0.6 -2.5,-2.7 -5,-2.4c-2.5,0.3 -2.5,4.3 -1.7,5.3c0.8,1 2.4,1.6 1.2,3.5c-1.1,1.9 0.6,4.2 2.6,5.1c2,0.9 5.1,-2.7 6.2,-4.2c1.1,-1.5 2.3,-1.1 2,0c-0.2,1 -0.7,3.5 -0.8,5.7c1.7,-0.6 3.4,-1 5,-1.5c0,-1.1 -0.2,-3.1 -0.8,-4.9C220.5,232.1 222,232.8 223.5,234.1z" fill="#008348" fill-opacity="1.0"/>
    <path d="M194.3,246.1c-2.7,0.8 -3.2,-0.5 -5,-1.1c-1.8,-0.7 -1.9,0.9 -0.7,2.8c1.2,1.9 2.6,3.7 1.1,3.7c-1.5,0 -2.6,0.2 -2.8,1.4c-0.2,1.1 -2.6,-0.2 -3.2,-2.6c-0.6,-2.4 -1.1,-6.8 -2.4,-4.6c-1.2,2.3 -2.4,6 -5.5,4.3c-3.2,-1.7 -1,-4 -2.6,-5.5c-1.6,-1.6 -3.1,-3.6 -1.5,-6.4c1.6,-2.8 2.9,-0.5 4.4,-0.5c1.5,0 1.7,-1.4 0.3,-2.4c-1.4,-1 -3.1,-5.9 3.2,-5.5c2.4,0.1 5,-0.7 6.9,-2.1c2,-1.5 7.2,-0.7 5.2,3.1c-2.1,3.7 -1.5,4.5 -0.2,3.2c1.2,-1.4 2.8,-3.8 5.2,-3.2c2.4,0.7 1.4,2.5 -0.1,4.5c-1.5,2 -0.6,3.4 0.6,4.2C198.5,240.1 200.5,244.3 194.3,246.1z" fill="#008348" fill-opacity="1.0"/>
    <path d="M205.8,219.7c-2,0.1 -4.5,-0.5 -4.5,-0.5c-0.2,2.1 -2.3,5.2 -4.4,8.3c-0.2,0.3 -1.5,0.3 -2,-0.1c-0.6,-0.5 -2.1,-1.2 -0.9,-2.6c1.2,-1.4 3.3,-4.2 2.9,-5.4s-1.2,-2.4 -2.6,-0.7c-1.4,1.7 -3.5,5.2 -5.9,5.3c-2.4,0.1 -4.7,-2 -3.6,-4.2s1.5,-3.3 -0.1,-5.2c-1.6,-1.9 -1,-4.3 2.4,-5.9c1,-0.5 2.8,0 4.1,1c1.2,1 1.9,0 0.2,-1c-1.7,-1 -3.1,-2.3 -3.3,-4.5c-0.2,-2.1 1.1,-4.4 4.1,-3.2c2.9,1.2 4.7,0.2 6,-0.8c1.2,-1 6.4,-2.3 5.8,2.4c-0.6,3.4 -2.1,3.5 -2.6,5.3c-0.5,1.8 0.9,0.7 1.7,-0.7s2.6,-6.9 6.3,-2.7c0.9,1 0.6,2.7 -0.6,4.6c-1.1,1.9 -0.2,3.1 0.5,4.1C209.8,214.5 211.4,219.3 205.8,219.7z" fill="#008348" fill-opacity="1.0"/>
    <path d="M298.3,130.6l3.4,-2.5l7.5,11.1l4.3,-3.2l-7.6,-10.8l3.3,-2.3l8.1,11.4l4.4,-3.2l-12.1,-16.8l-19.9,14l11,15.6l4.4,-3.2z" fill="#ffffff" fill-opacity="1.0"/>
    <path d="M312.7,168.8l6.4,-3.1l-4.4,-9.6l15.2,-6.4l-2.8,-6l-21.4,9.3z" fill="#ffffff" fill-opacity="1.0"/>
    <path d="M316.5,179.1l0.7,6l14.4,-1.7l0.5,6.2l6.6,-0.5l-1.8,-20.9l-6.5,0.5l0.6,8.7z" fill="#ffffff" fill-opacity="1.0"/>
    <path d="M317.2,199.5l0.1,7.2l21.3,0l-0.1,-7.3z" fill="#ffffff" fill-opacity="1.0"/>
    <path d="M327.1,216.7c-3.5,-0.7 -7.8,-0.1 -10.7,2.1c-2.6,2 -3.8,4.1 -4.5,7.7c-0.5,2.4 -0.1,5.3 0.7,8l5.7,-1.9c-0.6,-1.2 -0.8,-3.3 -0.2,-5.2c1.1,-3.8 4.3,-5.5 8,-5c4.1,0.6 6.3,4.3 5.7,8.7c-0.3,1.8 -1.1,3.3 -3.2,4.5l3.5,4.2c2.8,-1.7 5,-5.1 5.4,-7.6c0.8,-4.1 -0.2,-6.8 -2,-10.1C333.6,219 330.4,217.4 327.1,216.7z" fill="#ffffff" fill-opacity="1.0"/>
    <path d="M323.3,246.4c-2.9,-0.8 -7,2.5 -8.9,4.4c-1.1,1.1 -5.1,5 -6.9,4.4c-1.6,-0.6 -1.1,-3.1 -0.6,-4.6c0.8,-2.4 2,-4.3 4,-5.7l-3.5,-1.6c-1.7,1.5 -3.6,3.7 -4.4,6c-0.9,2.7 -1.2,5.8 -0.9,7.8c0.5,2.6 1.4,4.2 4.3,4c2.3,-0.2 7.8,-3.8 11.1,-6.9c1.7,-1.6 3.1,-1.7 3.7,-1.4c1.1,0.7 1.1,2.7 0.7,4c-0.6,1.7 -1.4,4.3 -2.7,5.2l4.7,3.2c1.9,-1.9 2.9,-5 3.5,-7.7C328.8,251 325.2,246.9 323.3,246.4z" fill="#ffffff" fill-opacity="1.0"/>
    <path d="M296.7,105.6c-0.5,-3.3 -2.3,-7 -4.1,-8.7c-2.8,-2.5 -6.2,-3.2 -9.8,-2.7c-3.6,0.5 -7,2.8 -8.9,5.5c-2,2.9 -3.3,7 -2.5,10.6c0.8,3.3 2,5.2 5.1,7.3c1.9,1.4 4.9,2.3 7.6,2.7l0.6,-5.9c-1.4,0 -3.3,-0.7 -4.9,-2c-3.1,-2.6 -3.2,-6.8 -1.2,-9.4c2.4,-3.3 6.6,-4 10.3,-1.6c1.5,1 2,2.6 2.4,4.9L296.7,105.6z" fill="#ffffff" fill-opacity="1.0"/>
    <path d="M79.7,227.8c0.1,-1.6 0.1,-4.5 1.8,-4.9s2.8,1.2 3.2,2.9c0.6,2.5 1.2,4.3 0.2,6.4l4.5,-0.5c0.8,-2.1 0.6,-4.9 0,-7.2c-0.6,-2.7 -1.5,-4.7 -3.5,-6.6c-1.9,-1.7 -3.4,-2.1 -6.3,-1.6c-1.7,0.3 -4.9,3.5 -5,9.7c0,1.1 -0.3,3.5 -1.4,3.5c-1.4,0.1 -2.4,-1.6 -2.6,-2.8c-0.3,-1.7 0.1,-5.5 0.8,-7.1h-4.7c-0.7,2.7 -0.9,6.4 -0.3,9.2c1.2,6.1 5,8 8,7.8C77.6,236.3 79.3,233 79.7,227.8z" fill="#ffffff" fill-opacity="1.0"/>
    <path d="M70.2,202.1l16.8,-0.2l0,-5.2l-16.8,0.1l-0.1,-7.1l-5.3,0.1l0.2,20l5.3,-0.1z" fill="#ffffff" fill-opacity="1.0"/>
    <path d="M100.5,149.6l-12.8,-7.5l0,0l17,-0.3l4.1,-6.4l-21,-12.1l-3.2,5l14.4,8.9l-19.7,0.6l-2.7,5.3l20.8,12.1z" fill="#ffffff" fill-opacity="1.0"/>
    <path d="M79.6,181.6c7.1,0 13,-5.8 13,-13c0,-7.1 -5.8,-13 -13,-13c-7.1,0 -13,5.8 -13,13C66.6,175.7 72.4,181.6 79.6,181.6zM79.6,161.8c3.7,0 6.8,3.1 6.8,6.8s-3.1,6.8 -6.8,6.8s-6.8,-3.1 -6.8,-6.8S75.9,161.8 79.6,161.8z" fill="#ffffff" fill-opacity="1.0"/>
    <path d="M100.9,253.8c0,-7.1 -5.8,-13 -13,-13c-7.1,0 -13,5.8 -13,13c0,7.1 5.8,13 13,13C95.1,266.8 100.9,260.9 100.9,253.8zM88,260.6c-3.7,0 -6.8,-3.1 -6.8,-6.8s3.1,-6.8 6.8,-6.8c3.7,0 6.8,3.1 6.8,6.8C94.7,257.5 91.7,260.6 88,260.6z" fill="#ffffff" fill-opacity="1.0"/>
    <path d="M103.5,268.6c-2,1.8 -2.9,6 -1.1,8.8c-2,-1 -6.2,-1.4 -8,0.3c-4.6,4.1 1,10 5.7,14.6l6.4,6.4l17.2,-14.2l-7,-8.1C114.3,273.3 107.6,265.1 103.5,268.6zM104.3,291.2c-1.7,-2 -6.8,-6.1 -4.6,-8.1c2,-1.9 7.2,4.3 7.8,5.1L104.3,291.2zM112.3,284l-0.5,-0.6c-1.5,-1.7 -6.2,-6.8 -4.3,-8.7c1.8,-1.7 6.4,4.1 7.7,5.7l0.6,0.7L112.3,284z" fill="#ffffff" fill-opacity="1.0"/>
    <path d="M180.1,335.7c0.7,-0.3 1.7,-0.8 2.1,-0.5c0.5,0.3 3.2,2.3 4.9,3.7c1.7,1.5 2.3,1.9 0.9,2.7c-1.4,0.8 -2.6,1.6 -2.4,0.9s0.6,-1.7 -0.3,-2.6s-3.1,-2.6 -4.1,-3.4C180.7,336 180.1,335.7 180.1,335.7z" fill="#bb9753" fill-opacity="1.0"/>
    <path d="M173.8,337.5c-0.6,0.5 -0.7,1.4 0,2c0.7,0.7 4.4,3.8 5.1,4.4c0.6,0.6 1.5,0.8 2.5,0.6s-1.1,1.2 -2,1.4c-0.8,0.1 -1.8,0.1 -2.7,-0.7c-0.9,-0.8 -6,-5.7 -7,-6.6c-1,-0.9 0.2,-0.9 1.1,-1C171.8,337.6 172.6,337.6 173.8,337.5z" fill="#bb9753" fill-opacity="1.0"/>
    <path d="M198.4,70.1c0.2,-0.6 0.3,-1.1 0.7,-1.6c-0.8,0.5 -1.6,0.9 -2.4,1.2C197.1,70.4 197.8,71.5 198.4,70.1z" fill="#bb9753" fill-opacity="1.0"/>
    <path d="M218.6,71.2c-0.3,-1.1 -1.4,0.7 -2.8,2.4c-1.4,1.7 -3.4,0.7 -3.6,-0.1c-0.2,-0.8 -0.6,-1.8 -1.8,-3.4c-1.2,-1.6 1.1,-3.8 2.1,-4.2c1,-0.2 2.3,-0.5 2.6,-0.8c0.3,-0.2 -0.2,-1.9 -0.5,-3.2c-4.1,1.1 -8.9,3.3 -13.3,5.4c1.4,0.5 0.9,3.1 0.8,3.4s-0.6,2.6 0.3,1.2c1,-1.4 1.4,-1.8 2.5,-2.1c1,-0.3 2.3,-0.3 2.3,1.2s-0.7,1.5 -0.9,2.5c-0.2,1 0,0.9 0.5,1.1c0.5,0.2 0.8,0.9 0.5,1.9s-2,1.1 -3.6,1c-1.5,-0.1 -1.7,0.1 -1.1,0.6c0.5,0.5 1,1.4 1.1,2.3c3.6,-1.8 8,-3.3 14.9,-4.6C218.8,74.6 218.8,72.2 218.6,71.2z" fill="#bb9753" fill-opacity="1.0"/>
    <path d="M183.1,93.4c-0.5,-1 -1.2,-1.1 -1.5,-0.3c-0.3,0.8 -0.8,3.4 -2.6,4.2c-0.6,0.2 -1,0.3 -1.4,0.5c0.6,0.7 1.2,1.2 2,1.8c1.4,-1.5 2.7,-2.7 3.8,-4C183.5,94.7 183.4,94 183.1,93.4z" fill="#bb9753" fill-opacity="1.0"/>
    <path d="M199.9,80c-0.6,-0.2 -1.1,0.7 -1.5,1.4c-0.3,0.7 -1.2,1.8 -2.7,1.6c-1.5,-0.1 -1.8,-0.7 -2.1,-1.9s-1.2,-1.6 -2.4,-1.6c-1,0 -1.8,-1.2 -0.7,-2.6c1.1,-1.4 2.3,-0.7 3.2,-0.7c0.9,0 1.4,-0.9 0.6,-1.5c-0.6,-0.5 -1.6,-1.6 -1.8,-2.4c-3.2,2.1 -7.8,5.3 -11.8,8.9c0.7,0.1 1.6,0.3 1.9,0.5c0.5,0.2 1.4,0.9 1.2,1.9c-0.1,1 0.2,1.2 0.8,0.6c0.6,-0.7 -0.1,-2.7 1.9,-3.5c2,-0.8 2.4,0.8 2.3,1.8c-0.1,1 0,2 1,2.5c1,0.5 2.3,2.1 -0.1,3.2c-2.4,1 -3.6,1.2 -4.6,1.5c-0.9,0.2 -0.7,1.2 0.1,1.8c0.5,0.3 0.8,0.8 1.1,1c2.9,-2.7 5.8,-5 8.9,-7.1c1.7,-1.1 3.3,-2.3 5,-3.2C200.7,81.3 200.8,80.2 199.9,80z" fill="#bb9753" fill-opacity="1.0"/>
    <path d="M177.9,90.4c0.1,-1.1 -0.8,-1.5 -1.4,-1.7c-0.5,-0.1 -1.1,-0.9 -1.5,-1.6c-0.6,0.8 -1,1.5 -1.5,2.3c0.2,0.8 0.5,1.5 0.7,2.1C175.7,91.4 177.9,91.4 177.9,90.4z" fill="#bb9753" fill-opacity="1.0"/>
    <path d="M225.3,142.8c-3.6,-0.2 -8,0.6 -12.2,2.1c0.7,0.5 1.5,1.5 3.1,0.9c2.1,-0.7 2.8,1.5 1.8,2.1c-1,0.6 -1.4,2.1 0.6,1c1.9,-1.1 3.6,0.5 2.8,1.7c-0.8,1.2 -1.8,0.2 -1.6,2c0.2,1.7 -0.1,3.3 -1.7,3.6c-1.6,0.2 -1.9,-2 -2.6,-1.9s0.1,4.2 -0.2,4.2c-1.1,0.2 -2.1,1.1 -2.7,1.7l0.1,0.1c6.2,4.4 7.7,2 8.6,-0.1c0.9,-2.1 2.9,-8.5 3.5,-11.8C225,146.6 225.5,144.6 225.3,142.8z" fill="#bb9753" fill-opacity="1.0"/>
    <path d="M211.9,155c0.3,-0.8 -0.6,-1.6 -1.5,-0.9c-0.9,0.6 -2.4,1.5 -3.3,-0.1c-0.9,-1.6 1,-1.8 1.1,-2.6s-0.7,-0.9 -0.2,-2.1c0.3,-1.2 1.8,-0.9 2.8,-0.2c1.1,0.8 0.8,-1.1 0.7,-1.8c-0.1,-0.6 -0.2,-1.1 -0.1,-1.5c-1.2,0.6 -2.4,1.1 -3.5,1.8c-5.8,3.5 -6,6.6 -4.6,7.6c1.2,1 3.6,1.5 7.9,4.2C211.1,157.8 211.6,155.7 211.9,155z" fill="#bb9753" fill-opacity="1.0"/>
    <path d="M193.6,151.6c-2.4,-1.2 -4.7,-3.8 -6.3,-6.8c0,0 0.1,-0.5 -0.6,-0.5s-3.2,-0.2 -7.2,-1.7c-4.2,-1.5 -4.7,-0.6 -5.3,1.2c-0.6,1.8 -1,5.1 -1.1,10.4c-0.1,5.4 2.3,8.7 3.7,8.1c0.7,-0.2 2.5,-1.1 4.5,-2.1c0,-1 0.1,-2.9 0.2,-3.8c0.2,-1.2 -1.1,-0.8 -1.7,-0.1c-0.6,0.7 -1.6,1.8 -2.6,1.6c-1,-0.1 -1.7,-1.9 -1.5,-3.6c0.1,-1.7 -1.8,-2.4 -0.6,-4.6c1.2,-2.3 2.3,0.6 3.3,0.3c1,-0.2 0.5,-0.8 0,-2.5c-0.5,-1.7 1.6,-2.3 2.9,-1c0.8,0.8 1.2,-0.9 2.5,-0.7c1.2,0.2 1.9,1 1.2,2.3c-0.6,0.9 -0.9,3.2 0.1,2c1,-1.1 2.1,-1.9 3.2,-1.1c1,0.8 0.3,2.4 0,3.3c-0.2,0.8 1.8,1.8 0.3,2.8c-1.5,1 -3.1,-0.7 -4,-0.5c-0.8,0.2 -1,1.2 0.1,2c0.7,0.6 1.5,0.9 2,1.1c2.4,-0.8 5.1,-2.4 6,-2.8l1.5,0.1C194.3,153.2 194.2,151.9 193.6,151.6z" fill="#bb9753" fill-opacity="1.0"/>
    <path d="M185.2,176.2c-0.9,-2 -1.2,-0.5 -3.7,3.5c-1.2,2 -4.4,5.7 -8.4,9.8c2.7,0.6 8.7,2 5.2,5c-3.8,3.2 -2.1,2.9 -0.5,2.7c1.7,-0.2 4.5,0.8 2.4,4.6c-2.1,3.8 -3.6,6.6 -5.7,7.7c-2,1.2 -5,1.1 -5.7,-1.8c-0.7,-2.9 -2.6,0 -2.7,1.9c-0.1,1.9 -0.3,5.2 -0.1,6.3l-4.3,-0.2c-0.1,-1.8 -0.1,-5.4 0.2,-7c0.3,-1.7 0.2,-3.7 -2.4,-2.9c-1.7,0.6 -2.8,0.1 -3.4,-0.2c-5,4.4 -7.6,7.6 -9.3,10.3c1.2,1.1 3.3,2 5.5,1.1c2.5,-1 6.6,0.2 4.1,4.1c-2.5,3.8 -2.4,5.8 0.1,3.4c2.5,-2.4 6.4,-6.4 7.6,-2.1c0.8,2.8 -1.8,3.7 -1.7,6c0.1,2.3 2.4,4.5 -0.8,7.1c-3.2,2.7 -4.5,-1.9 -6.7,-1.2c-1.2,0.5 -1.6,1.6 -1.5,2.6c2.8,4 6.9,9.5 8.4,12c2.3,3.7 2.3,8.1 3.2,7.5c0.9,-0.7 3.1,-2.7 3.7,-3.3s1.4,-1.2 1,-2.5c-0.3,-1.2 -1.6,-7.8 -1.2,-12.4c0.5,-5.3 2.9,-11.1 4.7,-14.4c1.7,-3.2 6.9,-13.3 8.1,-16.1c1.2,-2.7 3.5,-5.9 4.1,-8.3c0.6,-2.5 2.7,-8.1 3.6,-10.9C189.1,186.2 187.6,181.7 185.2,176.2z" fill="#bb9753" fill-opacity="1.0"/>
    <path d="M202.1,151.3c-0.7,1.8 -1.6,4.1 -2,5.2c-0.5,1.1 -2.5,0.7 -2.4,-0.1c0.3,-1.7 -2,-0.6 -1.8,-1.9c0.2,-1.1 -0.2,-2.9 1,-2.9C198.1,151.5 200.5,151.3 202.1,151.3z" fill="#bb9753" fill-opacity="1.0"/>
    <path d="M198.4,70.1c0.2,-0.6 0.3,-1.1 0.7,-1.6c-0.8,0.5 -1.6,0.9 -2.4,1.2C197.1,70.4 197.8,71.5 198.4,70.1z" fill="#bb9753" fill-opacity="1.0"/>
    <path d="M234.1,226.1c-2.9,-4.9 -3.5,-6.7 -4,-11.6c-0.2,-3.2 0,-7.1 0.5,-11.1c-0.9,-0.1 -2,0.1 -2.1,1.4c-0.1,2.1 -1.1,5.2 -1.8,6.7c-0.7,1.6 -2.9,1.5 -4.3,1.6c-1.4,0.1 -1.4,-0.8 -0.5,-2.8c0.9,-2 1.2,-2.9 1,-4.7c-0.2,-1.8 -1.1,-0.2 -1.9,1.4c-0.8,1.6 -3.1,4.7 -5.7,4.4s-1.9,-4.3 -1.7,-5.7c0.2,-1.4 -0.6,-1.6 -1.6,-1.8c-1,-0.2 -3.1,-0.7 -1.9,-4c1.1,-3.3 2.4,-2.9 4,-2.4c1.6,0.6 1.8,-0.5 0.3,-1c-1.5,-0.6 -3.1,-1.8 -2.9,-3.4c0.3,-4.2 2.9,-3.8 5,-3.4c1.8,0.3 4,-0.7 5.4,-2.3c0,-0.1 -0.1,-0.2 -0.1,-0.3c-2.9,-11.4 2.7,-25.4 4.3,-29.4c1.6,-4 7.6,-14.9 9.7,-18.3c-1.1,-0.6 -4.1,-2 -5.8,-2.9c-1.6,-0.8 -2.5,-1.2 -2.9,-0.6c-0.5,0.6 -1,0.9 -1.8,2c-1.6,2.3 -0.2,1.9 0.2,1.9s2.4,2.5 2.7,3.1c0.3,0.6 0,1 -0.8,2.8c-1,2.4 -1.7,7.7 -2.6,11c-2.7,9.8 -6.9,8.8 -8.8,7.6c-1.9,-1.2 -2.5,0.7 -4.4,3.4c-0.5,0.7 -1.6,1.8 -3.1,3.4c1.8,0.8 4.3,3.2 1.4,5.4c-3.5,2.7 -4.2,4.2 -2.5,3.8c1.7,-0.3 3.4,-2.9 5.3,-1.1c1.9,1.8 -0.7,3.8 -1.7,4.4s-3.1,1.6 -2.5,3.7c0.6,2.1 0.9,5.1 -1.9,5.8c-2.8,0.7 -4,-0.6 -4.7,-2c-0.8,-1.5 -1.6,-0.5 -1.9,1.4c-0.3,1.8 -0.6,3.2 -0.6,3.8s-2,-0.3 -2.9,-1.2c-0.9,-0.9 -2,1.6 -3.1,0.3c-1,-1.2 1.2,-5.1 2,-6.4c0.8,-1.2 0.5,-3.1 -4.1,-1c-1.5,2.4 -2.6,5.9 -4.4,11.4c-2.5,7.5 -8,17.8 -10.4,21.5c-6,9.7 -7.1,18.9 -6.2,24.7c0.9,5.7 1.7,5.3 2.9,5.3c1.2,0 4.3,3.8 6.3,6.2c2,2.4 2.8,1.4 3.8,0.6c3.3,-2.5 9.7,-6.8 19,-11.1c4,-1.8 9.2,-3.8 14.2,-5.4c0.1,-2.1 0.6,-4.6 0.8,-5.7c0.2,-1.1 -0.9,-1.5 -2,0c-1.1,1.5 -4.2,5.1 -6.2,4.2c-2,-0.9 -3.7,-3.2 -2.6,-5.1c1.1,-1.9 -0.5,-2.5 -1.2,-3.5c-0.8,-1 -0.8,-5 1.7,-5.3c2.5,-0.3 3.3,1.8 5,2.4c1.7,0.6 3.1,0.5 0.9,-1.9c-2.1,-2.4 -4.7,-1.5 -3.4,-4.7c1.4,-3.3 3.3,-3.1 5.5,-2.4c2.3,0.7 3.4,-0.6 4.9,-1.6c1.5,-1 4.4,-2.4 6.4,0c2,2.4 -1.5,4.5 -2.3,5.3c-1.5,1.5 -1.8,4.4 -0.1,2.7c1.7,-1.7 4.5,-7.8 6.6,-2.7c1.1,2.9 -1,4.1 -0.7,5.9c0.3,1.8 3.4,4.3 0.9,6.6c-2.5,2.3 -6,0.3 -7.3,-1c-1.5,-1.4 -3.1,-2 -2.4,0.5c0.5,1.8 0.8,3.7 0.8,4.9c4.9,-1.4 9.2,-2.1 11.3,-2c3.2,0.3 5.7,1.2 5.5,-1.7C238.6,232.9 237,230.9 234.1,226.1zM194.3,246.1c-2.7,0.8 -3.2,-0.5 -5,-1.1c-1.8,-0.7 -1.9,0.9 -0.7,2.8c1.2,1.9 2.6,3.7 1.1,3.7c-1.5,0 -2.6,0.2 -2.8,1.4c-0.2,1.1 -2.6,-0.2 -3.2,-2.6c-0.6,-2.4 -1.1,-6.8 -2.4,-4.6c-1.2,2.3 -2.4,6 -5.5,4.3c-3.2,-1.7 -1,-4 -2.6,-5.5c-1.6,-1.6 -3.1,-3.6 -1.5,-6.4c1.6,-2.8 2.9,-0.5 4.4,-0.5c1.5,0 1.7,-1.4 0.3,-2.4c-1.4,-1 -3.1,-5.9 3.2,-5.5c2.4,0.1 5,-0.7 6.9,-2.1c2,-1.5 7.2,-0.7 5.2,3.1c-2.1,3.7 -1.5,4.5 -0.2,3.2c1.2,-1.4 2.8,-3.8 5.2,-3.2c2.4,0.7 1.4,2.5 -0.1,4.5c-1.5,2 -0.6,3.4 0.6,4.2C198.5,240.1 200.5,244.3 194.3,246.1zM205.8,219.7c-2,0.1 -4.5,-0.5 -4.5,-0.5c-0.2,2.1 -2.3,5.2 -4.4,8.3c-0.2,0.3 -1.5,0.3 -2,-0.1c-0.6,-0.5 -2.1,-1.2 -0.9,-2.6c1.2,-1.4 3.3,-4.2 2.9,-5.4s-1.2,-2.4 -2.6,-0.7c-1.4,1.7 -3.5,5.2 -5.9,5.3c-2.4,0.1 -4.7,-2 -3.6,-4.2s1.5,-3.3 -0.1,-5.2c-1.6,-1.9 -1,-4.3 2.4,-5.9c1,-0.5 2.8,0 4.1,1c1.2,1 1.9,0 0.2,-1c-1.7,-1 -3.1,-2.3 -3.3,-4.5c-0.2,-2.1 1.1,-4.4 4.1,-3.2c2.9,1.2 4.7,0.2 6,-0.8c1.2,-1 6.4,-2.3 5.8,2.4c-0.6,3.4 -2.1,3.5 -2.6,5.3c-0.5,1.8 0.9,0.7 1.7,-0.7s2.6,-6.9 6.3,-2.7c0.9,1 0.6,2.7 -0.6,4.6c-1.1,1.9 -0.2,3.1 0.5,4.1C209.8,214.5 211.4,219.3 205.8,219.7z" fill="#bb9753" fill-opacity="1.0"/>
    <path d="M167.7,315.6c-0.5,0 -1.6,-0.2 -1.6,-0.7l-1.2,-0.1c0.8,0.1 1.5,1 0.7,1.6c-0.9,0.7 -3.7,1 -6.8,0.8c-3.1,-0.1 -3.7,-1.8 -3.8,-3.1c0,-0.8 0,-1.5 0,-2.6s-0.2,-2.1 0.5,-2.6s0.5,0.7 0.9,0.7c1.9,0 8.5,0.7 10.1,0.9c1.6,0.2 1.5,-0.7 1.1,-1.8c-0.1,-0.3 -0.6,-0.2 -0.7,0.2c-0.2,0.5 -1.6,0.3 -1.6,0.3s-2.9,-0.3 -4.9,-0.5c-1.9,-0.1 -3.4,-0.3 -4.5,-0.6c-1.1,-0.2 -2.6,-0.2 -2.5,0.3c0.1,0.6 0.5,7.7 0.5,8.7c0,1 0.1,1.5 0.6,1.5c1.2,0 10,0.1 12,0.1c2,0 1.9,-0.2 1.9,-1.4C168.4,316.5 168.2,315.6 167.7,315.6z" fill="#bb9753" fill-opacity="1.0"/>
</svg>