<?xml version="1.0" encoding="utf-8" standalone="no"?><svg xmlns:android="http://schemas.android.com/apk/res/android" height="400.0" width="400.0" xmlns="http://www.w3.org/2000/svg">
    <path d="M339.2,214.2c0,16.2 -63.4,30.8 -139.8,30.8c-76.5,0 -137.9,-14.6 -138.5,-30.8c-0.5,-14.7 42.8,-24.2 92.4,-22.4c-32.3,4.9 -64.8,9.4 -64.8,18.1c0,13.2 48.9,22.5 110.8,22.5c61.9,0 111.7,-9.3 111.7,-22.5c0,-8.5 -29.9,-13.5 -65.8,-18.1C295.5,189.1 338.5,200 339.2,214.2" fill="#c4cdd3" fill-opacity="1.0"/>
    <path d="M173.4,277.6l1.8,67.2l3.9,-121c-1.6,-53.2 9.2,-140.4 -13.2,-204.8c-23.8,73.9 -11,90.6 -14.1,206.7l2.8,89.5l3.7,-48.9c0.1,-6.1 4.7,-5.5 4.7,-0.3l1.7,64.5l4,-52.5C168.6,270.9 173.5,271.2 173.4,277.6" fill="#c4cdd3" fill-opacity="1.0"/>
    <path d="M246.4,243.2L243,388.7l-2.3,-85.7c-0.1,-6.1 -5.2,-6.4 -5.4,0l-2.8,64.6l-2.8,-74.8c0,-6 -4.6,-6.4 -4.6,0.4l-2.7,53.4l-3.3,-105.4l0.7,-76.5c0.6,-20.4 -59.5,-20.2 -59.5,-20.2s71.6,1.5 65.7,-42c-4.3,-31.7 -122,-21 -122,-21s33.3,-10.9 75,-14.9c46.8,-4.5 75,6.7 76.6,29.3c2.7,39.9 -49,45.7 -49,45.7s40.8,-7.9 40.9,16.8L246.4,243.2z" fill="#c4cdd3" fill-opacity="1.0"/>
    <path d="M341.5,211.8c0,16.3 -63.4,30.8 -139.8,30.8S63.8,228.1 63.2,211.8c-0.5,-14.6 42.8,-24.2 92.4,-22.3c-32.2,4.8 -64.8,9.4 -64.8,18.1c0,13.2 48.9,22.5 110.8,22.5c61.9,0 111.7,-9.3 111.7,-22.5c0,-8.5 -29.9,-13.5 -65.8,-18.1C297.8,186.8 340.9,197.7 341.5,211.8" fill="#cd1141" fill-opacity="1.0"/>
    <path d="M175.7,275.3l1.8,67.2l3.9,-121c-1.6,-53.2 9.2,-140.4 -13.2,-204.8c-23.8,73.9 -11,90.6 -14.1,206.7l2.8,89.5l3.7,-48.9c0.1,-6.1 4.8,-5.5 4.7,-0.3l1.7,64.5l4,-52.5C170.9,268.6 175.8,268.9 175.7,275.3" fill="#cd1141" fill-opacity="1.0"/>
    <path d="M248.7,240.9l-3.4,145.5l-2.3,-85.7c-0.1,-6.1 -5.2,-6.3 -5.4,0l-2.8,64.7l-2.8,-74.8c0,-6 -4.6,-6.4 -4.6,0.4l-2.7,53.4l-3.3,-105.4l0.7,-76.5c0.6,-20.4 -59.5,-20.2 -59.5,-20.2s71.6,1.5 65.7,-42c-4.3,-31.7 -122,-21 -122,-21s33.3,-10.9 75,-14.9c46.8,-4.5 75,6.7 76.6,29.3c2.7,39.9 -49,45.7 -49,45.7s40.8,-7.9 40.9,16.9L248.7,240.9z" fill="#cd1141" fill-opacity="1.0"/>
</svg>