<?xml version="1.0" encoding="utf-8" standalone="no"?><svg xmlns:android="http://schemas.android.com/apk/res/android" height="400.0" width="400.0" xmlns="http://www.w3.org/2000/svg">
    <path d="M77.5,278.6c-1.3,-0.1 -2.5,-0.3 -3.7,-0.6c-12.4,-5.4 -6,-18.2 -2.3,-26.6c4.8,-10.8 9.7,-21.5 14.7,-32.1c-26.8,8.4 -52.9,17.2 -78.1,26.4c-6.3,2.7 -10.2,-1.6 -2.9,-5.9c25.7,-16.3 54,-31.2 84.6,-44.3c-7.5,-15.6 -13.5,-32.3 -17.9,-50.1l-3.5,-14.1c44.4,-22.9 81.9,-35.5 132.3,-35.5c50.4,0 87.9,12.6 132.3,35.5c-0.8,3.4 -1.7,6.8 -2.6,10.1c22.1,-0.8 43.6,-0.3 64.3,1.3c4.9,0.4 4.9,6 0.2,6.5c-23,3.3 -46.4,7 -70.1,11.3c-1.5,4.5 -3,9 -4.7,13.4c25.3,-5.4 50.1,-9 74.1,-10.9c6.2,-0.6 6.2,5.4 1.2,6.4c-28.1,8.6 -56.7,18.1 -85.6,28.6c-24.6,51 -60.8,85.1 -109,114c-21.4,-12.9 -40.9,-27.1 -58.9,-44.5c-39.6,18.5 -77.5,37.8 -113.4,57.7c-5.4,3.4 -10.3,0.5 -3.8,-5.4C41,305.5 58.6,291.7 77.5,278.6" fill="#ffffff" fill-opacity="1.0"/>
    <path d="M314.8,178.5c27.2,-6 53.9,-10.1 79.7,-12.1c-28.5,8.7 -57.6,18.5 -87.1,29.1C310,190 312.5,184.3 314.8,178.5M27,322.3c22.8,-20.1 48.4,-39.3 76.6,-56.9c5.3,-2.7 10.6,-5.3 15.9,-8c2.2,-1.1 6.5,-3.2 11.9,-5.7c3.6,4.1 7.4,8 11.3,11.9C102.2,282.4 63.5,302.1 27,322.3" fill="#057dc1" fill-opacity="1.0"/>
    <path d="M326.1,144.9c23.5,-1 46.4,-0.6 68.4,1.1c-23.7,3.4 -47.8,7.2 -72.2,11.7C323.6,153.5 324.9,149.2 326.1,144.9M7.1,242.6c26.4,-16.8 55.7,-32.1 87.3,-45.4c1,2.1 2.1,4.2 3.2,6.3c-1.7,3.5 -3.4,7 -5.1,10.4C63.2,223 34.7,232.6 7.1,242.6" fill="#ee3c33" fill-opacity="1.0"/>
    <path d="M176.8,230.1l3.8,-1.8l9.9,-7.9l2.2,-6.1c1.4,2.9 2.2,4 3.6,6.9l3.2,-1.4c0.1,3.1 0.2,6.2 0.2,9.1c-7.1,1.6 -14.8,2.5 -22.8,2.6L176.8,230.1zM205.1,217.4c4.1,-1.8 8.2,-3.6 12.3,-5.4l1.9,-2c0.8,0.1 1.7,0.2 2.8,0.1c1.6,-0.3 3.5,-0.8 5.7,-1.5c-1.4,5 -2.2,9.4 -2.6,13.1c-5.8,2.1 -12.4,4 -19.8,5.9C205.4,224.3 205.3,220.9 205.1,217.4M200.8,107.3c44.5,0 79.5,10.4 118.9,30.1c-19.3,72.7 -54.6,121.6 -118.9,161.3c-24.2,-14.9 -44.7,-31.6 -61.9,-50.6c7.6,-3.6 16.2,-7.7 23.8,-11.3c3.1,0.3 6,0.4 8.7,0.5c-0.2,4.2 -1.5,7.3 -3.6,9.5c1.2,1.4 2.5,2.8 3.7,4.2c3.3,-3 5.5,-7.4 5.6,-13.6c7.8,-0.1 15.4,-0.9 22.4,-2.4c-0.4,11.5 -2,19.9 -5.2,23.2c-0.1,0.1 -0.2,0.2 -0.2,0.3c-0.8,0.9 -1.6,1.6 -2.2,2.1c3.2,-0.6 6.2,-1.3 9.3,-2.2c3.9,-8.1 4,-22.4 4.1,-24.9c7.3,-1.8 13.8,-3.7 19.6,-5.7c0.2,6.7 2.9,13.1 8,15.5c2.3,-1.6 4.5,-3.3 6.7,-5.1c-1.3,0.2 -9.4,0.8 -9.3,-12.3c17.1,-6.5 28.2,-14.2 38.1,-25.8c2.6,-5.9 4.7,-12 6.2,-18.3c-11.7,18.5 -22.5,29.3 -43.6,37.8c0.6,-3.7 1.7,-8.2 3.4,-13.5c6.1,-2.6 12.6,-5.6 16.4,-7.2l9.2,-9.7c2.3,-8.9 4.6,-17.9 6.9,-26.9l-7.2,2.2l8.5,-8.9c1.8,-7 3.5,-14 5.3,-21c-4.3,0.6 -8.5,1.3 -12.8,1.9c0.7,-3.5 1.2,-7 1.5,-10.4c-2,-0.5 -4.1,-1 -6.2,-1.5c-0.4,3.9 -1.2,8.2 -2.4,13l-0.6,0.1c-4,0.7 -8.1,2 -11.6,5l1.1,-3.4c-6.8,1.2 -13.7,2.5 -20.5,3.8l-6.8,7.1l0.2,-0.6l2.2,-5.7c-6.7,1.4 -13.5,2.8 -20.2,4.3c-1.4,-9.1 -2.8,-17.3 -4,-24c-1.9,0.2 -3.8,0.5 -5.7,0.8c1.2,6.7 2.7,15.1 4.1,24.4l-4.8,1.1l-6.1,6.4c-4.2,-4.5 -12.9,-1.7 -18.3,-0.3c-5.9,1.5 -11.8,3 -17.6,4.6c-1.8,0.5 -3.5,1 -5.2,1.6c-4.4,-6.3 -8.5,-12.9 -12,-20l-0.6,-1.3c-1.8,0.7 -3.6,1.5 -5.3,2.3l0.8,1.6c3.3,6.9 7.3,13.3 11.7,19.6c-6.3,2.8 -12.2,6.7 -17.3,12.3c0,0 -8.2,8.6 -9.2,9.7c-2.1,2.5 -4,5.1 -5.6,7.7c-8.7,-17.4 -15.5,-36.4 -20.7,-57.1C121.3,117.7 156.2,107.3 200.8,107.3" fill="#ffffff" fill-opacity="1.0"/>
    <path d="M176.8,230.2l3.9,-1.8l9.9,-7.9l2.2,-6.1c1.4,2.9 2.2,4 3.6,6.9l3.2,-1.4c0.1,3.1 0.2,6.2 0.2,9.1c-7.1,1.6 -14.8,2.5 -22.8,2.6L176.8,230.2zM205.2,217.4c4.1,-1.8 8.2,-3.6 12.3,-5.4l1.9,-2c0.8,0.1 1.7,0.2 2.8,0.1c1.6,-0.3 3.5,-0.8 5.7,-1.5c-1.4,5 -2.2,9.4 -2.6,13.1c-5.8,2.1 -12.4,4 -19.8,5.9C205.4,224.3 205.3,220.9 205.2,217.4M127.5,141.4c19.6,-8 39.7,-13.6 60.5,-16.6c1.2,6.7 2.7,15.1 4.1,24.4l-4.8,1.1l-6.1,6.4c-4.2,-4.5 -12.9,-1.7 -18.3,-0.3c-5.9,1.5 -11.8,3 -17.6,4.6c-1.8,0.5 -3.5,1 -5.2,1.6c-4.4,-6.3 -8.5,-12.9 -12,-19.9L127.5,141.4zM122.6,172.1c-3.2,-8.1 -6,-16.4 -8.4,-24.8c2.7,-1.3 5.3,-2.5 8,-3.6l0.8,1.6c3.3,6.9 7.3,13.3 11.7,19.6C130.3,166.6 126.3,169 122.6,172.1M167.9,246.7c-2.5,-2.9 -5,-5.9 -7.4,-8.9l2.3,-1.1c3.1,0.3 6,0.4 8.7,0.5C171.3,241.4 170,244.5 167.9,246.7M192,260.5c-3.2,0.6 -6.5,1 -9.8,1.3c-3.7,-3.6 -7.2,-7.2 -10.6,-11c3.3,-3 5.5,-7.4 5.6,-13.6c7.8,-0.1 15.4,-0.9 22.4,-2.4c-0.4,11.5 -2,19.9 -5.2,23.2c-0.1,0.1 -0.2,0.2 -0.2,0.3C193.3,259.3 192.6,260 192,260.5M233,243.3c-9.5,6.7 -20.2,11.9 -31.7,15.1c3.9,-8.1 4,-22.4 4,-24.9c7.3,-1.8 13.8,-3.7 19.6,-5.7C225.2,234.5 227.9,240.9 233,243.3M268.5,200c-6.6,14.8 -16.5,27.8 -28.8,38.1c-1.3,0.2 -9.4,0.7 -9.3,-12.3C247.5,219.4 258.7,211.6 268.5,200M224.8,122.2c9.4,0 18.7,0.5 27.9,1.5c7,1.5 13.9,3.2 20.7,5.3c2.6,9.1 4,18.8 4,28.8c0,8.2 -0.9,16.3 -2.8,24c-11.7,18.5 -22.5,29.3 -43.6,37.8c0.6,-3.7 1.7,-8.2 3.4,-13.5c6.2,-2.6 12.6,-5.6 16.5,-7.2l9.2,-9.7c2.3,-8.9 4.6,-17.9 6.9,-26.9l-7.2,2.3l8.5,-8.9c1.8,-7 3.5,-14 5.3,-21c-4.2,0.6 -8.5,1.3 -12.8,1.9c0.7,-3.5 1.2,-7 1.5,-10.4c-2,-0.5 -4.1,-1 -6.2,-1.5c-0.4,3.9 -1.2,8.2 -2.3,13l-0.6,0.1c-4,0.7 -8.1,2 -11.6,5l1.1,-3.4c-6.8,1.2 -13.6,2.5 -20.5,3.8l-6.8,7.1l0.2,-0.6l2.2,-5.7c-6.7,1.4 -13.5,2.8 -20.2,4.3c-1.4,-9.1 -2.8,-17.3 -4,-24C203.9,122.8 214.2,122.2 224.8,122.2" fill="#ee3c33" fill-opacity="1.0"/>
    <path d="M113.5,181.1c-5.5,-12.1 -10.2,-24.7 -13.9,-37.7c33,-15.6 67.2,-24 103.5,-25c17,0.1 33.5,1.9 49.6,5.3c-9.2,-1 -18.5,-1.5 -27.9,-1.5c-10.5,0 -20.9,0.6 -31.1,1.9c-1.9,0.2 -3.8,0.5 -5.7,0.8c-20.7,3 -40.8,8.5 -60.5,16.6c-1.8,0.7 -3.5,1.5 -5.3,2.3c-2.7,1.2 -5.4,2.4 -8,3.6c2.4,8.5 5.2,16.8 8.4,24.8c-1.8,1.5 -3.6,3.2 -5.3,5L113.5,181.1zM202.7,286.5c-18.9,-12.8 -35.8,-27.9 -50.4,-44.9l8.1,-3.8c2.4,3 4.9,6 7.4,8.9c1.2,1.4 2.5,2.8 3.7,4.2c10.8,11.9 22.8,22.7 35.8,32.5C205.9,284.5 204.3,285.5 202.7,286.5" fill="#f9b82f" fill-opacity="1.0"/>
    <path d="M176.8,230.1l0.2,1.4c7.9,-0.1 15.6,-1 22.8,-2.6c0,-2.9 -0.1,-5.9 -0.2,-9.1l-3.2,1.4c-1.4,-2.9 -2.2,-4 -3.6,-6.9l-2.2,6.1l-9.9,7.9L176.8,230.1zM205.2,217.4c0.1,3.5 0.2,6.9 0.2,10.1c7.4,-1.9 14,-3.8 19.8,-5.9c0.4,-3.8 1.2,-8.1 2.6,-13.1c-2.1,0.7 -4.1,1.3 -5.7,1.6c-1,0.1 -2,0.1 -2.8,-0.1l-1.9,2C213.3,213.8 209.2,215.6 205.2,217.4M200.8,107.3c-44.6,0 -79.5,10.4 -119,30.1c5.1,20.8 12,39.7 20.7,57.1c1.6,-2.7 3.5,-5.3 5.6,-7.7c1,-1.1 9.2,-9.7 9.2,-9.7c5.1,-5.6 10.9,-9.5 17.3,-12.3c-4.3,-6.3 -8.3,-12.7 -11.7,-19.6l-0.8,-1.6c1.8,-0.8 3.5,-1.5 5.3,-2.2l0.6,1.3c3.4,7 7.5,13.6 12,20c1.7,-0.6 3.5,-1.1 5.2,-1.6c5.9,-1.6 11.8,-3.1 17.6,-4.6c5.4,-1.4 14.1,-4.2 18.3,0.3l6.1,-6.4l4.8,-1.1c-1.4,-9.3 -2.9,-17.7 -4.1,-24.4c1.9,-0.3 3.8,-0.5 5.7,-0.8c1.2,6.6 2.6,14.9 4,24c6.7,-1.5 13.5,-2.9 20.2,-4.3l-2.2,5.7l-0.2,0.6l6.8,-7.1c6.8,-1.3 13.6,-2.6 20.5,-3.8l-1.1,3.4c3.6,-3 7.6,-4.3 11.6,-5l0.6,-0.1c1.2,-4.8 1.9,-9.1 2.3,-13c2.1,0.5 4.1,1 6.2,1.5c-0.3,3.5 -0.8,6.9 -1.5,10.5c4.2,-0.7 8.5,-1.3 12.8,-1.9c-1.7,7 -3.5,14 -5.3,21.1l-8.5,8.9l7.2,-2.2c-2.3,9 -4.6,17.9 -6.9,26.9l-9.2,9.7c-3.9,1.6 -10.3,4.7 -16.4,7.2c-1.7,5.3 -2.8,9.8 -3.4,13.5c21.1,-8.5 31.9,-19.3 43.6,-37.8c-1.5,6.4 -3.6,12.5 -6.2,18.3c-9.8,11.6 -20.9,19.4 -38.1,25.8c-0.1,13 8,12.5 9.3,12.3c-2.2,1.8 -4.4,3.5 -6.7,5.1c-5.1,-2.4 -7.8,-8.7 -8,-15.4c-5.8,2 -12.4,3.8 -19.6,5.7c-0.1,2.5 -0.1,16.7 -4,24.9c-3.1,0.9 -6.2,1.6 -9.3,2.2c0.6,-0.6 1.4,-1.3 2.2,-2.1c0,-0.1 0.1,-0.2 0.2,-0.3c3.3,-3.3 4.9,-11.8 5.3,-23.2c-7,1.5 -14.6,2.3 -22.4,2.4c-0.2,6.3 -2.3,10.7 -5.6,13.6c-1.3,-1.4 -2.5,-2.8 -3.7,-4.2c2.1,-2.2 3.4,-5.3 3.6,-9.5c-2.7,-0.1 -5.7,-0.2 -8.7,-0.5c-7.6,3.6 -16.2,7.7 -23.8,11.3c17.2,19 37.7,35.7 61.9,50.6c64.3,-39.7 99.6,-88.5 118.9,-161.3C280.3,117.7 245.3,107.3 200.8,107.3M72.3,133c42.7,-22 80.1,-33.9 128.5,-33.9c48.4,0 85.8,12 128.4,33.9c-19.8,79.8 -57.6,132.7 -128.4,175.2c-26.7,-16 -50,-34.8 -69.5,-56.5c-5.4,2.6 -9.7,4.7 -11.9,5.8c-6.7,3.3 -13.4,6.7 -20,10.1c-7.5,3.8 -15.8,9.6 -24.5,7.4c-9.4,-4.1 -3.2,-15.6 -0.3,-22.1c7.3,-16.5 15,-33 23,-49.2c-9.6,-18 -17.1,-37.6 -22.4,-58.9L72.3,133z" fill="#1e3160" fill-opacity="1.0"/>
    <path d="M253.6,140.9c-4.1,0.7 -7.8,2 -10.9,5.1c-2.5,2.7 -3.8,5.9 -4.9,9.3c-3.3,10.2 -6.5,20.5 -9.8,30.7c-1.3,4 -3.4,11.4 3.1,10.9c2.2,-0.4 4.3,-1.3 6.4,-2.2c6.6,-2.8 13.1,-5.6 19.7,-8.3c1.7,-6.4 3.3,-12.9 5,-19.3c-3.5,1.1 -6.9,2.2 -10.4,3.3c-0.8,2.9 -1.6,5.8 -2.4,8.7c-2.4,0.9 -4.8,1.8 -7.2,2.6c3,-10.4 6.1,-20.8 9.1,-31.2c2.1,-0.5 4.3,-0.9 6.4,-1.4c-0.5,1.8 -1,3.7 -1.5,5.5c3.1,-0.7 6.2,-1.5 9.3,-2.2c1.2,-4.7 2.4,-9.4 3.5,-14C263.9,139.3 258.7,140.1 253.6,140.9M224.1,146c-7.3,9.6 -14.6,19.3 -21.8,29c3.4,-8.9 6.7,-17.8 10.1,-26.7c-7.6,1.6 -15.2,3.2 -22.8,4.9c-2,4.6 -3.9,9.2 -5.9,13.8c1.6,-0.5 3.3,-0.9 4.9,-1.4c-6,14.4 -11.8,28.9 -17.5,43.5c-2.3,5.9 -4.7,11.8 -7,17.7c7.6,-3.6 15.2,-7.2 22.9,-10.7c3.5,-9.5 6.9,-19.1 10.5,-28.6c3.2,6.5 6.4,13 9.6,19.5c4.9,-2.2 9.9,-4.4 14.8,-6.5c-3,-6.9 -6.1,-13.7 -9.1,-20.5c5.5,-8.3 11,-16.6 16.6,-24.8c1.6,-0.4 3.1,-0.7 4.7,-1.1c1.2,-3.6 2.4,-7.1 3.5,-10.7C233.2,144.3 228.6,145.1 224.1,146M133.3,225.6c-5.3,2.4 -10.6,4.7 -15.9,7.2c7.7,-17.8 15.6,-35.4 23.9,-52.9c4.6,-1.5 9.3,-2.9 14,-4.3C147.8,192.1 140.4,208.8 133.3,225.6M146,164.3c-10,2.7 -19,7 -26.2,14.9c-4.1,4.7 -7,10.1 -9.8,15.7c-8,16.3 -15.7,32.8 -23.1,49.3c-1.9,4.3 -7.8,14.9 -1.5,17.6c6.9,1.8 15.6,-4 21.8,-7.2c6.7,-3.4 13.3,-6.7 20,-10.1c11.4,-5.7 21.6,-12.5 28.6,-23.6c2.8,-4.7 4.8,-9.6 6.8,-14.6c4.3,-10.7 8.8,-21.4 13.3,-32.1c1.7,-4 4.7,-9 3.7,-13.4c-1.9,-5.9 -11.8,-2.3 -16.1,-1.2C157.7,161.2 151.9,162.8 146,164.3" fill="#ffffff" fill-opacity="1.0" fill-rule="evenOdd"/>
    <path d="M281.8,132.1c2.9,1 5.9,2.1 8.8,3.1C287.7,134.1 284.7,133.1 281.8,132.1M281.3,131.4c3.1,1 6,2.1 9,3.2c7.3,2.7 13.8,5.5 19.1,8c-16.5,56.7 -50.3,104.2 -98.1,138.1l-3.9,2.7c-14,-10.5 -22.2,-18.7 -22.2,-18.7l6.6,-1.1c20,-3.3 39.2,-12.4 55.1,-27.2C274,211.1 285,175 279.4,141c-0.1,-0.8 -0.3,-1.5 -0.4,-2.3l-0.1,-0.3l-0.1,-0.4l-0.1,-0.4l-0.1,-0.4l-0.1,-0.4l-0.1,-0.4l-0.1,-0.4l-0.1,-0.4l-0.1,-0.4l-0.1,-0.3l-0.1,-0.4l-0.1,-0.4l-0.1,-0.3l-0.1,-0.3l-0.1,-0.3c-0.3,-1.2 -0.6,-2.3 -0.9,-3.3C278.4,130.5 279.8,131 281.3,131.4" fill="#057dc1" fill-opacity="1.0"/>
</svg>